<?xml version="1.0" standalone="no"?><!DOCTYPE svg PUBLIC "-//W3C//DTD SVG 1.1//EN" "http://www.w3.org/Graphics/SVG/1.1/DTD/svg11.dtd"><svg t="1606059024045" class="icon" viewBox="0 0 1024 1024" version="1.1" xmlns="http://www.w3.org/2000/svg" p-id="899" xmlns:xlink="http://www.w3.org/1999/xlink" width="200" height="200"><defs><style type="text/css"></style></defs><path d="M970.522739 654.52074l-54.756622-31.216392c10.746627-36.333833 16.375812-74.714643 16.375812-115.142429s-5.629185-78.808596-16.375812-115.142429l54.756622-31.216392c16.375812-9.211394 22.004998-31.216392 12.793603-47.592203l-67.550225-117.189406c-9.211394-16.375812-31.216392-22.004998-47.592204-12.793603l-51.174413 31.216392c-53.221389-56.803598-122.306847-98.766617-195.486257-117.189405V34.798601c0-18.422789-23.54023-34.798601-41.963018-34.798601H445.985007c-18.422789 0-23.54023 14.84058-23.540229 34.798601v63.968016c-73.17941 19.958021-151.476262 60.385807-206.744628 115.142428l-58.338831-31.216391c-16.375812-9.211394-38.38081-3.582209-47.592204 12.793603L40.683658 310.628686c-9.211394 16.375812-3.582209 36.333833 12.793603 47.592204l54.756622 31.216391c-10.746627 36.333833-16.375812 74.714643-16.375812 115.142429 0 41.963018 5.629185 80.343828 16.375812 117.189405l-54.756622 31.216392c-16.375812 9.211394-22.004998 31.216392-12.793603 47.592204l67.550225 117.189405c9.211394 16.375812 31.216392 22.004998 47.592204 12.793604l60.385807-31.216392c53.221389 54.756622 131.518241 95.184408 204.697651 115.142429v63.968016c0 18.422789 5.629185 45.545227 23.54023 45.545227h133.565218c18.422789 0 41.963018-27.634183 41.963018-45.545227v-63.968016c73.17941-19.958021 142.776612-60.385807 197.533233-115.142429l53.22139 31.216392c16.375812 9.211394 36.333833 3.582209 45.545227-12.793604l66.014993-117.189405c10.234883-16.887556 5.117441-37.357321-11.770115-46.056971z m-160.687657-148.405797c0 44.009995-9.211394 83.926037-27.634182 120.771614l-164.269866-95.184408c2.046977-9.211394 7.164418-18.422789 7.164418-27.634183 0-51.174413-40.427786-93.137431-76.761619-105.931034V210.326837c146.358821 17.911044 261.501249 142.264868 261.501249 295.788106zM493.577211 210.326837v189.857071c-54.756622 12.793603-85.973013 56.803598-85.973013 105.931035 0 9.211394-2.046977 18.422789 0 27.634182l-166.316842 95.184408c-16.375812-36.333833-23.54023-78.808596-23.54023-122.306846 0-157.617191 129.983008-285.553223 275.830085-296.29985z m18.422789 592.087956c-98.766617 0-186.274863-49.127436-239.496252-122.306847L435.238381 584.923538c19.958021 19.958021 47.592204 31.216392 76.761619 31.216392 29.169415 0 56.803598-12.793603 76.761619-31.216392l162.734633 95.184408c-53.221389 74.714643-140.729635 122.306847-239.496252 122.306847z" fill="#1dbb43" p-id="900" data-spm-anchor-id="a313x.7781069.0.i0" class=""></path></svg>