<?xml version="1.0" encoding="utf-8"?>
<!-- Generator: Adobe Illustrator 23.0.0, SVG Export Plug-In . SVG Version: 6.00 Build 0)  -->
<svg version="1.1" id="图层_1" xmlns="http://www.w3.org/2000/svg" xmlns:xlink="http://www.w3.org/1999/xlink" x="0px" y="0px"
	 viewBox="0 0 300 300" style="enable-background:new 0 0 300 300;" xml:space="preserve">
<style type="text/css">
	.st0{fill:#ECF3F8;}
	.st1{enable-background:new    ;}
	.st2{clip-path:url(#SVGID_2_);enable-background:new    ;}
	.st3{fill:#004878;}
	.st4{fill:#004675;}
	.st5{clip-path:url(#SVGID_4_);enable-background:new    ;}
	.st6{fill:#004B7C;}
	.st7{fill:#004471;}
	.st8{fill:#00426D;}
	.st9{fill:#003F69;}
	.st10{fill:#003D66;}
	.st11{fill:#003B62;}
	.st12{clip-path:url(#SVGID_6_);enable-background:new    ;}
	.st13{clip-path:url(#SVGID_8_);enable-background:new    ;}
	.st14{clip-path:url(#SVGID_10_);enable-background:new    ;}
	.st15{fill:#9E9E9E;}
	.st16{fill:#A3A3A3;}
	.st17{fill:#A8A8A8;}
	.st18{clip-path:url(#SVGID_12_);enable-background:new    ;}
	.st19{fill:#999999;}
	.st20{fill:#949494;}
	.st21{fill:#8F8F8F;}
	.st22{fill:#8A8A8A;}
	.st23{fill:#858585;}
	.st24{clip-path:url(#SVGID_14_);enable-background:new    ;}
	.st25{fill:#042B55;}
	.st26{clip-path:url(#SVGID_16_);enable-background:new    ;}
	.st27{clip-path:url(#SVGID_18_);enable-background:new    ;}
	.st28{fill:#05366C;}
	.st29{fill:#043468;}
	.st30{fill:#043365;}
	.st31{clip-path:url(#SVGID_20_);enable-background:new    ;}
	.st32{clip-path:url(#SVGID_22_);enable-background:new    ;}
	.st33{clip-path:url(#SVGID_24_);enable-background:new    ;}
	.st34{clip-path:url(#SVGID_26_);enable-background:new    ;}
	.st35{fill:#042C58;}
	.st36{fill:#042E5B;}
	.st37{fill:#04305F;}
	.st38{fill:#043162;}
	.st39{fill:#20569E;}
	.st40{clip-path:url(#SVGID_28_);enable-background:new    ;}
	.st41{fill:#FFFFFF;}
	.st42{clip-path:url(#SVGID_30_);enable-background:new    ;}
	.st43{clip-path:url(#SVGID_32_);enable-background:new    ;}
	.st44{clip-path:url(#SVGID_34_);enable-background:new    ;}
	.st45{clip-path:url(#SVGID_36_);enable-background:new    ;}
	.st46{fill:#06488E;}
	.st47{clip-path:url(#SVGID_38_);enable-background:new    ;}
	.st48{fill:#32A857;}
	.st49{fill:#30A354;}
	.st50{fill:#2F9D52;}
	.st51{clip-path:url(#SVGID_40_);enable-background:new    ;}
	.st52{fill:#278445;}
	.st53{fill:#FFFFFF;stroke:#F2F2F2;stroke-miterlimit:10;}
	.st54{fill:#41DE73;}
	.st55{clip-path:url(#SVGID_42_);enable-background:new    ;}
	.st56{fill:#298947;}
	.st57{fill:#2A8E4A;}
	.st58{fill:#2C934D;}
	.st59{fill:#2D984F;}
	.st60{clip-path:url(#SVGID_44_);enable-background:new    ;}
	.st61{clip-path:url(#SVGID_46_);enable-background:new    ;}
	.st62{clip-path:url(#SVGID_48_);enable-background:new    ;}
	.st63{clip-path:url(#SVGID_50_);enable-background:new    ;}
	.st64{fill:url(#SVGID_51_);}
	.st65{clip-path:url(#SVGID_53_);enable-background:new    ;}
	.st66{fill:#A6A6A6;}
	.st67{clip-path:url(#SVGID_55_);enable-background:new    ;}
	.st68{clip-path:url(#SVGID_57_);enable-background:new    ;}
	.st69{fill:#004572;}
	.st70{clip-path:url(#SVGID_59_);enable-background:new    ;}
	.st71{clip-path:url(#SVGID_61_);enable-background:new    ;}
	.st72{clip-path:url(#SVGID_63_);enable-background:new    ;}
	.st73{clip-path:url(#SVGID_65_);enable-background:new    ;}
	.st74{fill:#004A7B;}
	.st75{clip-path:url(#SVGID_67_);enable-background:new    ;}
	.st76{clip-path:url(#SVGID_69_);enable-background:new    ;}
	.st77{clip-path:url(#SVGID_71_);enable-background:new    ;}
	.st78{fill:#A77B32;}
	.st79{fill:#A27830;}
	.st80{clip-path:url(#SVGID_73_);enable-background:new    ;}
	.st81{fill:#846127;}
	.st82{fill:#896529;}
	.st83{fill:#8E692A;}
	.st84{fill:#936C2C;}
	.st85{fill:#98702D;}
	.st86{fill:#9D742F;}
	.st87{clip-path:url(#SVGID_75_);enable-background:new    ;}
	.st88{clip-path:url(#SVGID_77_);enable-background:new    ;}
	.st89{clip-path:url(#SVGID_79_);enable-background:new    ;}
	.st90{fill:#85262D;}
	.st91{clip-path:url(#SVGID_81_);enable-background:new    ;}
	.st92{clip-path:url(#SVGID_83_);enable-background:new    ;}
	.st93{fill:#A83139;}
	.st94{fill:#A32F37;}
	.st95{fill:#9E2E35;}
	.st96{clip-path:url(#SVGID_85_);enable-background:new    ;}
	.st97{fill:#8A282E;}
	.st98{fill:#8F2930;}
	.st99{fill:#942B32;}
	.st100{fill:#992C34;}
	.st101{clip-path:url(#SVGID_87_);enable-background:new    ;}
	.st102{fill:#9B9B9B;}
	.st103{clip-path:url(#SVGID_89_);enable-background:new    ;}
	.st104{clip-path:url(#SVGID_91_);enable-background:new    ;}
	.st105{fill:#DDA341;}
	.st106{fill:url(#SVGID_92_);}
	.st107{fill:url(#SVGID_93_);}
	.st108{clip-path:url(#SVGID_95_);enable-background:new    ;}
	.st109{clip-path:url(#SVGID_97_);enable-background:new    ;}
	.st110{clip-path:url(#SVGID_99_);enable-background:new    ;}
	.st111{fill:url(#SVGID_100_);}
	.st112{fill:url(#SVGID_101_);}
	.st113{fill:#DF414B;}
	.st114{fill:url(#SVGID_102_);}
	.st115{fill:url(#SVGID_103_);}
	.st116{opacity:0.3;fill:url(#SVGID_104_);}
	.st117{fill:url(#SVGID_105_);}
	.st118{fill:url(#SVGID_106_);}
	.st119{fill:url(#SVGID_107_);}
	.st120{opacity:0.5;fill:url(#SVGID_108_);}
	.st121{opacity:0.5;fill:url(#SVGID_109_);}
</style>
<g>
	<ellipse class="st0" cx="152.63" cy="222.9" rx="88.18" ry="38.25"/>
	<g>
		<g class="st1">
			<defs>
				<path id="SVGID_1_" class="st1" d="M238.86,92.84l14.92,8.12c-0.97-0.53-1.98-1.01-3.01-1.43l-14.92-8.12
					C236.88,91.83,237.89,92.31,238.86,92.84z"/>
			</defs>
			<clipPath id="SVGID_2_">
				<use xlink:href="#SVGID_1_"  style="overflow:visible;"/>
			</clipPath>
			<g class="st2">
				<path class="st3" d="M250.78,99.52l-14.92-8.12c0.64,0.26,1.28,0.55,1.9,0.86l14.92,8.12
					C252.05,100.07,251.42,99.79,250.78,99.52"/>
				<path class="st4" d="M252.68,100.38l-14.92-8.12c0.38,0.18,0.75,0.38,1.11,0.58l14.92,8.12
					C253.42,100.76,253.05,100.56,252.68,100.38"/>
			</g>
		</g>
		<g class="st1">
			<defs>
				<path id="SVGID_3_" class="st1" d="M212.17,119.76c12.88-1.81,23.41-14.47,23.68-28.36c2.49,1.35,4.97,2.71,7.46,4.06
					c1.91,1.04,3.81,2.07,5.72,3.11l1.75,0.95c-0.27,13.89-10.8,26.55-23.68,28.36c-4.43,0.62-8.57-0.11-12.11-1.91
					c-4.97-2.71-9.95-5.41-14.92-8.12C203.6,119.65,207.75,120.38,212.17,119.76z"/>
			</defs>
			<clipPath id="SVGID_4_">
				<use xlink:href="#SVGID_3_"  style="overflow:visible;"/>
			</clipPath>
			<g class="st5">
				<path class="st4" d="M214.49,125.71l-14.92-8.12c0.23,0.13,0.47,0.25,0.71,0.37l14.92,8.12
					C214.95,125.96,214.72,125.83,214.49,125.71"/>
				<path class="st3" d="M215.19,126.07l-14.92-8.12c1.18,0.58,2.42,1.04,3.72,1.38l14.92,8.12
					C217.62,127.12,216.37,126.65,215.19,126.07"/>
				<path class="st6" d="M218.91,127.45l-14.92-8.12c2.55,0.66,5.31,0.83,8.18,0.43c2.4-0.34,4.71-1.05,6.89-2.07l14.92,8.12
					c-2.18,1.03-4.5,1.74-6.89,2.07C224.22,128.28,221.46,128.11,218.91,127.45"/>
				<path class="st3" d="M233.99,125.81l-14.92-8.12c1.33-0.63,2.62-1.37,3.84-2.22l14.92,8.12
					C236.61,124.44,235.32,125.18,233.99,125.81"/>
				<path class="st4" d="M237.83,123.59l-14.92-8.12c1-0.69,1.95-1.45,2.86-2.26l14.92,8.12
					C239.78,122.14,238.83,122.9,237.83,123.59"/>
				<path class="st7" d="M240.69,121.33l-14.92-8.12c0.85-0.76,1.65-1.58,2.42-2.44l14.92,8.12
					C242.34,119.75,241.54,120.56,240.69,121.33"/>
				<path class="st8" d="M243.1,118.89l-14.92-8.12c0.76-0.86,1.47-1.76,2.13-2.71l14.92,8.12
					C244.58,117.12,243.86,118.03,243.1,118.89"/>
				<path class="st9" d="M245.24,116.18l-14.92-8.12c0.7-1,1.35-2.05,1.93-3.13l14.92,8.12
					C246.59,114.13,245.94,115.18,245.24,116.18"/>
				<path class="st10" d="M247.17,113.04l-14.92-8.12c0.69-1.28,1.29-2.62,1.8-4l14.92,8.12
					C248.46,110.42,247.86,111.76,247.17,113.04"/>
				<path class="st11" d="M248.97,109.05l-14.92-8.12c1.11-3.02,1.74-6.24,1.81-9.52l14.92,8.12
					C250.71,102.81,250.08,106.03,248.97,109.05"/>
			</g>
		</g>
		<g class="st1">
			<defs>
				<path id="SVGID_5_" class="st1" d="M178.77,194.01l-14.92-8.12c-0.33-0.18-0.66-0.37-0.99-0.56l14.92,8.12
					C178.11,193.65,178.44,193.83,178.77,194.01z"/>
			</defs>
			<clipPath id="SVGID_6_">
				<use xlink:href="#SVGID_5_"  style="overflow:visible;"/>
			</clipPath>
			<g class="st12">
				<path class="st11" d="M178.77,194.01l-14.92-8.12c-0.33-0.18-0.66-0.37-0.99-0.56l14.92,8.12
					C178.11,193.65,178.44,193.83,178.77,194.01"/>
			</g>
		</g>
		<g class="st1">
			<defs>
				<path id="SVGID_7_" class="st1" d="M200.06,117.85c0.98,0.51,1.94,1.06,2.92,1.59c0.97,0.53,1.94,1.06,2.92,1.59
					c3.03,1.65,6.06,3.3,9.09,4.94c-0.17-0.09-0.33-0.17-0.5-0.26l-14.92-8.12C199.73,117.68,199.89,117.77,200.06,117.85z"/>
			</defs>
			<clipPath id="SVGID_8_">
				<use xlink:href="#SVGID_7_"  style="overflow:visible;"/>
			</clipPath>
			<g class="st13">
				<path class="st4" d="M214.49,125.71l-14.92-8.12c0.23,0.13,0.47,0.25,0.71,0.37l14.92,8.12
					C214.95,125.96,214.72,125.83,214.49,125.71"/>
			</g>
		</g>
		<g class="st1">
			<defs>
				<path id="SVGID_9_" class="st1" d="M218.65,118.03l-14.92-8.12c2.45,1.33,5.35,1.9,8.46,1.46l14.92,8.12
					C224,119.93,221.1,119.37,218.65,118.03z"/>
			</defs>
			<clipPath id="SVGID_10_">
				<use xlink:href="#SVGID_9_"  style="overflow:visible;"/>
			</clipPath>
			<g class="st14">
				<path class="st15" d="M218.65,118.03l-14.92-8.12c0.16,0.09,0.32,0.17,0.48,0.25l14.92,8.12
					C218.97,118.2,218.81,118.12,218.65,118.03"/>
				<path class="st16" d="M219.13,118.28l-14.92-8.12c0.8,0.39,1.64,0.7,2.51,0.93l14.92,8.12
					C220.77,118.99,219.93,118.67,219.13,118.28"/>
				<path class="st17" d="M221.64,119.21l-14.92-8.12c1.71,0.44,3.55,0.55,5.47,0.28l14.92,8.12
					C225.19,119.76,223.35,119.65,221.64,119.21"/>
			</g>
		</g>
		<g class="st1">
			<defs>
				<path id="SVGID_11_" class="st1" d="M220.72,78.57l14.92,8.12c4.44,2.41,7.38,7.35,7.37,13.44c-0.02,9.44-7.15,18.13-15.9,19.36
					l-14.92-8.12c8.75-1.23,15.88-9.92,15.9-19.36C228.1,85.92,225.15,80.99,220.72,78.57z"/>
			</defs>
			<clipPath id="SVGID_12_">
				<use xlink:href="#SVGID_11_"  style="overflow:visible;"/>
			</clipPath>
			<g class="st18">
				<path class="st17" d="M227.11,119.49l-14.92-8.12c1.61-0.23,3.16-0.7,4.62-1.39l14.92,8.12
					C230.27,118.79,228.72,119.27,227.11,119.49"/>
				<path class="st16" d="M231.73,118.1l-14.92-8.12c0.89-0.42,1.76-0.92,2.58-1.49l14.92,8.12
					C233.49,117.18,232.63,117.68,231.73,118.1"/>
				<path class="st15" d="M234.31,116.62l-14.92-8.12c0.67-0.46,1.31-0.97,1.92-1.52l14.92,8.12
					C235.62,115.64,234.98,116.15,234.31,116.62"/>
				<path class="st19" d="M236.23,115.1l-14.92-8.12c0.57-0.51,1.11-1.06,1.62-1.64l14.92,8.12
					C237.34,114.03,236.8,114.58,236.23,115.1"/>
				<path class="st20" d="M237.86,113.46l-14.92-8.12c0.51-0.58,0.99-1.18,1.43-1.82l14.92,8.12
					C238.84,112.27,238.36,112.88,237.86,113.46"/>
				<path class="st21" d="M239.29,111.64l-14.92-8.12c0.47-0.67,0.9-1.37,1.3-2.1l14.92,8.12
					C240.19,110.26,239.76,110.97,239.29,111.64"/>
				<path class="st22" d="M240.58,109.53l-14.92-8.12c0.46-0.86,0.87-1.75,1.2-2.68l14.92,8.12
					C241.45,107.78,241.05,108.68,240.58,109.53"/>
				<path class="st23" d="M241.79,106.86l-14.92-8.12c0.78-2.13,1.22-4.41,1.22-6.73c0.01-6.09-2.93-11.02-7.37-13.44l14.92,8.12
					c4.44,2.41,7.38,7.35,7.37,13.44C243.01,102.45,242.57,104.73,241.79,106.86"/>
			</g>
		</g>
		<g class="st1">
			<defs>
				<path id="SVGID_13_" class="st1" d="M203.72,109.91c-1-0.54-1.92-1.21-2.74-1.99c4.97,2.71,9.95,5.41,14.92,8.12
					c0.83,0.78,1.75,1.45,2.74,1.99C214.17,115.6,208.2,112.35,203.72,109.91z"/>
			</defs>
			<clipPath id="SVGID_14_">
				<use xlink:href="#SVGID_13_"  style="overflow:visible;"/>
			</clipPath>
			<g class="st24">
				<path class="st25" d="M218.65,118.03l-14.92-8.12c-4.44-2.42-7.39-7.36-7.38-13.44c0-2.32,0.44-4.59,1.22-6.72l14.92,8.12
					c-0.78,2.13-1.22,4.4-1.22,6.72C211.26,110.68,214.21,115.62,218.65,118.03"/>
			</g>
		</g>
		<g>
			<polygon class="st3" points="199.68,139.94 184.75,131.82 197.91,116.58 212.83,124.7 			"/>
		</g>
		<g class="st1">
			<defs>
				<path id="SVGID_15_" class="st1" d="M198.5,104.81c4.97,2.71,9.95,5.41,14.92,8.12c0.69,1.17,1.52,2.22,2.48,3.12
					c-4.97-2.71-9.95-5.41-14.92-8.12C200.02,107.03,199.19,105.98,198.5,104.81z"/>
			</defs>
			<clipPath id="SVGID_16_">
				<use xlink:href="#SVGID_15_"  style="overflow:visible;"/>
			</clipPath>
			<g class="st26">
				<path class="st25" d="M218.65,118.03l-14.92-8.12c-4.44-2.42-7.39-7.36-7.38-13.44c0-2.32,0.44-4.59,1.22-6.72l14.92,8.12
					c-0.78,2.13-1.22,4.4-1.22,6.72C211.26,110.68,214.21,115.62,218.65,118.03"/>
			</g>
		</g>
		<g class="st1">
			<defs>
				<path id="SVGID_17_" class="st1" d="M212.25,77.11c3.11-0.44,6.02,0.13,8.46,1.46l14.92,8.12c-2.45-1.33-5.35-1.9-8.46-1.46
					C222.7,82.8,216.73,79.55,212.25,77.11z"/>
			</defs>
			<clipPath id="SVGID_18_">
				<use xlink:href="#SVGID_17_"  style="overflow:visible;"/>
			</clipPath>
			<g class="st27">
				<path class="st28" d="M227.18,85.23l-14.92-8.12c1.92-0.27,3.77-0.16,5.47,0.28l14.92,8.12
					C230.94,85.07,229.1,84.96,227.18,85.23"/>
				<path class="st29" d="M232.65,85.51l-14.92-8.12c0.88,0.23,1.71,0.54,2.51,0.93l14.92,8.12
					C234.36,86.05,233.52,85.74,232.65,85.51"/>
				<path class="st30" d="M235.16,86.44l-14.92-8.12c0.16,0.08,0.32,0.16,0.48,0.25l14.92,8.12
					C235.48,86.6,235.32,86.52,235.16,86.44"/>
			</g>
		</g>
		<g class="st1">
			<defs>
				<path id="SVGID_19_" class="st1" d="M198.5,104.81c-0.34-0.59-0.65-1.2-0.92-1.85c4.97,2.71,9.95,5.41,14.92,8.12
					c0.27,0.65,0.57,1.26,0.92,1.85c-3.32-1.8-6.63-3.61-9.95-5.41c-0.4-0.22-0.8-0.43-1.2-0.65c-0.1-0.05-0.22-0.12-0.32-0.17
					c-0.19-0.11-0.45-0.25-0.65-0.35c-0.33-0.18-0.65-0.35-0.98-0.53c-0.52-0.28-1.03-0.56-1.55-0.84
					C198.7,104.92,198.57,104.87,198.5,104.81z"/>
			</defs>
			<clipPath id="SVGID_20_">
				<use xlink:href="#SVGID_19_"  style="overflow:visible;"/>
			</clipPath>
			<g class="st31">
				<path class="st25" d="M218.65,118.03l-14.92-8.12c-4.44-2.42-7.39-7.36-7.38-13.44c0-2.32,0.44-4.59,1.22-6.72l14.92,8.12
					c-0.78,2.13-1.22,4.4-1.22,6.72C211.26,110.68,214.21,115.62,218.65,118.03"/>
			</g>
		</g>
		<g class="st1">
			<defs>
				<path id="SVGID_21_" class="st1" d="M189.07,145.95c0.01-5.48-1.59-10.34-4.32-14.12l14.92,8.12c2.73,3.78,4.33,8.64,4.32,14.12
					c-0.03,14.07-10.65,27-23.68,28.83c-3.26,0.46-6.36,0.18-9.19-0.72c-4.97-2.71-9.95-5.41-14.92-8.12
					c2.82,0.9,5.93,1.17,9.19,0.72C178.42,172.95,189.04,160.02,189.07,145.95z"/>
			</defs>
			<clipPath id="SVGID_22_">
				<use xlink:href="#SVGID_21_"  style="overflow:visible;"/>
			</clipPath>
			<g class="st32">
				<path class="st3" d="M168.42,181.1l-14.92-8.12c1.18,0.58,2.43,1.05,3.74,1.38l14.92,8.12
					C170.86,182.15,169.61,181.68,168.42,181.1"/>
				<path class="st6" d="M172.16,182.48l-14.92-8.12c2.54,0.65,5.28,0.82,8.15,0.42c2.39-0.34,4.71-1.05,6.89-2.07l14.92,8.12
					c-2.18,1.02-4.49,1.74-6.89,2.07C177.45,183.3,174.7,183.14,172.16,182.48"/>
				<path class="st3" d="M187.2,180.83l-14.92-8.12c1.33-0.63,2.62-1.37,3.84-2.21l14.92,8.12
					C189.82,179.46,188.53,180.2,187.2,180.83"/>
				<path class="st4" d="M191.04,178.61l-14.92-8.12c1-0.69,1.95-1.45,2.86-2.27l14.92,8.12
					C192.99,177.17,192.04,177.92,191.04,178.61"/>
				<path class="st7" d="M193.9,176.35l-14.92-8.12c0.85-0.76,1.66-1.58,2.42-2.44l14.92,8.12
					C195.56,174.77,194.75,175.59,193.9,176.35"/>
				<path class="st8" d="M196.32,173.91l-14.92-8.12c0.76-0.86,1.47-1.76,2.13-2.71l14.92,8.12
					C197.79,172.14,197.08,173.05,196.32,173.91"/>
				<path class="st9" d="M198.45,171.2l-14.92-8.12c0.7-1,1.35-2.05,1.93-3.13l14.92,8.12C199.8,169.15,199.15,170.2,198.45,171.2"
					/>
				<path class="st10" d="M200.38,168.07l-14.92-8.12c0.69-1.28,1.29-2.61,1.79-3.98l14.92,8.12
					C201.67,165.46,201.07,166.79,200.38,168.07"/>
				<path class="st11" d="M202.18,164.09l-14.92-8.12c1.17-3.17,1.81-6.56,1.82-10.02c0.01-5.48-1.59-10.34-4.32-14.12l14.92,8.12
					c2.73,3.78,4.33,8.64,4.32,14.12C203.99,157.52,203.34,160.91,202.18,164.09"/>
			</g>
		</g>
		<g class="st1">
			<defs>
				<path id="SVGID_23_" class="st1" d="M155.13,173.7c0.35,0.13,0.7,0.26,1.06,0.37c4.97,2.71,9.95,5.41,14.92,8.12
					c-0.36-0.11-0.71-0.24-1.06-0.37C165.08,179.11,160.11,176.4,155.13,173.7z"/>
			</defs>
			<clipPath id="SVGID_24_">
				<use xlink:href="#SVGID_23_"  style="overflow:visible;"/>
			</clipPath>
			<g class="st33">
				<path class="st3" d="M168.42,181.1l-14.92-8.12c1.18,0.58,2.43,1.05,3.74,1.38l14.92,8.12
					C170.86,182.15,169.61,181.68,168.42,181.1"/>
			</g>
		</g>
		<g class="st1">
			<defs>
				<path id="SVGID_25_" class="st1" d="M196.35,96.47c0.02-9.44,7.16-18.13,15.91-19.36l14.92,8.12
					c-8.75,1.23-15.89,9.91-15.91,19.36c0,2.36,0.44,4.55,1.24,6.49c-4.97-2.71-9.95-5.41-14.92-8.12
					C196.78,101.02,196.34,98.83,196.35,96.47z"/>
			</defs>
			<clipPath id="SVGID_26_">
				<use xlink:href="#SVGID_25_"  style="overflow:visible;"/>
			</clipPath>
			<g class="st34">
				<path class="st25" d="M218.65,118.03l-14.92-8.12c-4.44-2.42-7.39-7.36-7.38-13.44c0-2.32,0.44-4.59,1.22-6.72l14.92,8.12
					c-0.78,2.13-1.22,4.4-1.22,6.72C211.26,110.68,214.21,115.62,218.65,118.03"/>
				<path class="st35" d="M212.49,97.87l-14.92-8.12c0.34-0.92,0.74-1.81,1.2-2.67l14.92,8.12
					C213.23,96.05,212.83,96.95,212.49,97.87"/>
				<path class="st36" d="M213.69,95.2l-14.92-8.12c0.39-0.73,0.82-1.43,1.3-2.1l14.92,8.12C214.52,93.77,214.08,94.47,213.69,95.2"
					/>
				<path class="st37" d="M214.99,93.09l-14.92-8.12c0.44-0.63,0.92-1.24,1.43-1.82l14.92,8.12
					C215.91,91.85,215.43,92.46,214.99,93.09"/>
				<path class="st38" d="M216.42,91.28l-14.92-8.12c0.51-0.58,1.05-1.13,1.62-1.64l14.92,8.12
					C217.47,90.15,216.93,90.7,216.42,91.28"/>
				<path class="st30" d="M218.04,89.64l-14.92-8.12c0.61-0.55,1.25-1.06,1.92-1.52l14.92,8.12
					C219.3,88.58,218.66,89.09,218.04,89.64"/>
				<path class="st29" d="M219.97,88.11l-14.92-8.12c0.82-0.57,1.68-1.07,2.58-1.49l14.92,8.12
					C221.65,87.05,220.79,87.55,219.97,88.11"/>
				<path class="st28" d="M222.55,86.63l-14.92-8.12c1.47-0.69,3.02-1.17,4.63-1.39l14.92,8.12
					C225.57,85.46,224.01,85.94,222.55,86.63"/>
			</g>
		</g>
		<g>
			<g>
				<path class="st39" d="M224.88,70.9c-0.24-0.13-0.48-0.25-0.72-0.37c-0.09-0.04-0.18-0.07-0.27-0.12
					c-0.39-0.19-0.79-0.36-1.2-0.52c-0.16-0.06-0.32-0.13-0.48-0.19c-0.57-0.21-1.15-0.39-1.74-0.54c-0.01,0-0.03-0.01-0.04-0.01
					c-0.08-0.02-0.16-0.03-0.24-0.05c-0.49-0.12-0.99-0.22-1.5-0.31c-0.2-0.03-0.4-0.06-0.6-0.08c-0.42-0.06-0.83-0.1-1.26-0.13
					c-0.22-0.02-0.44-0.03-0.67-0.04c-0.44-0.02-0.88-0.02-1.32-0.01c-0.2,0-0.4,0-0.6,0.01c-0.64,0.03-1.29,0.09-1.95,0.18
					c-0.54,0.08-1.07,0.18-1.6,0.29c-0.14,0.03-0.29,0.06-0.43,0.1c-0.44,0.1-0.87,0.22-1.3,0.34c-0.1,0.03-0.19,0.05-0.29,0.08
					c-0.51,0.16-1.01,0.33-1.51,0.52c-0.12,0.05-0.25,0.1-0.37,0.15c-0.4,0.16-0.8,0.33-1.19,0.51c-0.08,0.04-0.16,0.07-0.24,0.1
					c-0.05,0.02-0.1,0.05-0.15,0.08c-0.28,0.13-0.56,0.28-0.83,0.42c-0.13,0.07-0.27,0.14-0.4,0.21c-0.4,0.22-0.8,0.45-1.2,0.69
					c-0.42,0.26-0.83,0.52-1.23,0.8c-0.05,0.04-0.1,0.08-0.15,0.11c-0.24,0.17-0.48,0.35-0.71,0.53c-0.25,0.19-0.51,0.38-0.75,0.57
					c-0.23,0.19-0.46,0.38-0.68,0.58c-0.19,0.16-0.38,0.31-0.56,0.48c-0.05,0.05-0.11,0.1-0.16,0.15c-0.18,0.17-0.36,0.34-0.54,0.52
					c-0.25,0.24-0.5,0.48-0.74,0.73c-0.18,0.19-0.36,0.38-0.53,0.57c-0.15,0.16-0.3,0.31-0.44,0.47c-0.08,0.1-0.16,0.2-0.25,0.29
					c-0.17,0.2-0.34,0.4-0.5,0.6c-0.22,0.26-0.43,0.53-0.64,0.8c-0.16,0.21-0.32,0.42-0.47,0.64c-0.09,0.12-0.19,0.24-0.27,0.37
					c-0.1,0.14-0.19,0.3-0.29,0.44c-0.17,0.25-0.33,0.5-0.5,0.75c-0.17,0.27-0.34,0.55-0.5,0.83c-0.15,0.26-0.3,0.52-0.45,0.78
					c-0.06,0.11-0.13,0.22-0.2,0.34c-0.08,0.14-0.14,0.29-0.21,0.43c-0.19,0.37-0.38,0.74-0.55,1.12c-0.12,0.25-0.23,0.5-0.34,0.75
					c-0.17,0.39-0.33,0.78-0.48,1.18c-0.06,0.17-0.14,0.33-0.2,0.5c-0.04,0.12-0.08,0.24-0.12,0.36c-0.05,0.13-0.09,0.26-0.14,0.39
					c-0.17,0.51-0.33,1.02-0.48,1.54c-0.01,0.03-0.02,0.06-0.03,0.1c-0.15,0.54-0.28,1.1-0.4,1.65c-0.03,0.14-0.06,0.27-0.09,0.41
					c-0.11,0.54-0.21,1.09-0.28,1.64c0,0.02-0.01,0.03-0.01,0.05c-0.08,0.57-0.13,1.13-0.18,1.71c-0.01,0.14-0.02,0.28-0.03,0.42
					c-0.04,0.58-0.06,1.15-0.06,1.73c-0.01,5.27,1.47,9.96,4.01,13.67c1.45,2.13,3.26,3.93,5.33,5.34c0.53,0.36,1.09,0.7,1.65,1.01
					l14.92,8.12c-0.57-0.31-1.12-0.65-1.65-1.01c-2.07-1.41-3.87-3.21-5.33-5.34c-2.54-3.71-4.02-8.4-4.01-13.67
					c0-0.58,0.03-1.16,0.06-1.73c0.01-0.14,0.02-0.28,0.03-0.42c0.04-0.57,0.1-1.14,0.18-1.71c0-0.02,0.01-0.03,0.01-0.05
					c0.08-0.55,0.18-1.1,0.28-1.64c0.03-0.14,0.06-0.28,0.09-0.41c0.12-0.55,0.25-1.1,0.4-1.65c0.01-0.03,0.02-0.06,0.03-0.1
					c0.14-0.52,0.31-1.03,0.48-1.54c0.04-0.13,0.09-0.26,0.14-0.39c0.1-0.29,0.22-0.57,0.33-0.86c0.15-0.4,0.31-0.79,0.48-1.18
					c0.11-0.25,0.22-0.5,0.34-0.75c0.18-0.38,0.36-0.75,0.55-1.12c0.13-0.26,0.27-0.51,0.41-0.77c0.15-0.26,0.3-0.52,0.45-0.78
					c0.16-0.28,0.33-0.55,0.5-0.83c0.16-0.25,0.33-0.5,0.5-0.75c0.18-0.27,0.37-0.54,0.57-0.81c0.15-0.21,0.31-0.43,0.47-0.64
					c0.21-0.27,0.42-0.54,0.64-0.8c0.17-0.2,0.33-0.41,0.5-0.6c0.22-0.26,0.45-0.51,0.68-0.76c0.18-0.19,0.35-0.38,0.53-0.57
					c0.24-0.25,0.49-0.49,0.74-0.73c0.18-0.17,0.36-0.35,0.54-0.52c0.24-0.22,0.48-0.42,0.72-0.63c0.23-0.19,0.45-0.39,0.68-0.58
					c0.25-0.2,0.5-0.38,0.75-0.57c0.24-0.18,0.47-0.36,0.71-0.53c0.45-0.32,0.91-0.63,1.38-0.91c0.39-0.24,0.79-0.47,1.2-0.69
					c0.13-0.07,0.27-0.14,0.4-0.21c0.28-0.14,0.55-0.29,0.83-0.42c0.13-0.06,0.26-0.12,0.39-0.18c0.39-0.18,0.79-0.35,1.19-0.51
					c0.12-0.05,0.25-0.1,0.37-0.15c0.5-0.19,1-0.37,1.51-0.52c0.09-0.03,0.19-0.05,0.29-0.08c0.43-0.13,0.86-0.24,1.3-0.34
					c0.14-0.03,0.29-0.07,0.43-0.1c0.53-0.11,1.06-0.21,1.6-0.29c0.66-0.09,1.31-0.15,1.95-0.18c0.2-0.01,0.4-0.01,0.6-0.01
					c0.44-0.01,0.88-0.01,1.32,0.01c0.22,0.01,0.45,0.02,0.67,0.04c0.42,0.03,0.84,0.07,1.26,0.13c0.2,0.03,0.4,0.05,0.6,0.08
					c0.51,0.08,1.01,0.19,1.5,0.31c0.09,0.02,0.19,0.04,0.28,0.06c0.59,0.15,1.17,0.34,1.74,0.54c0.16,0.06,0.32,0.13,0.48,0.19
					c0.41,0.16,0.81,0.33,1.2,0.52c0.33,0.16,0.67,0.31,0.99,0.49L224.88,70.9z"/>
			</g>
		</g>
		<g>
			<polygon class="st16" points="194.22,134.75 179.29,126.63 192.58,111.24 207.5,119.35 			"/>
		</g>
		<g class="st1">
			<defs>
				<path id="SVGID_27_" class="st1" d="M184.75,131.82c-1.5-2.08-3.35-3.84-5.46-5.19l14.92,8.12c2.11,1.35,3.95,3.11,5.46,5.19
					C195.2,137.51,188.58,135.19,184.75,131.82z"/>
			</defs>
			<clipPath id="SVGID_28_">
				<use xlink:href="#SVGID_27_"  style="overflow:visible;"/>
			</clipPath>
			<g class="st40">
				<path class="st23" d="M199.68,139.94l-14.92-8.12c-1.5-2.08-3.35-3.84-5.46-5.19l14.92,8.12
					C196.33,136.1,198.17,137.86,199.68,139.94"/>
			</g>
		</g>
		<g>
			<path class="st41" d="M207.5,119.35c1.45,2.13,3.26,3.93,5.33,5.34l-13.16,15.25c-1.5-2.08-3.35-3.84-5.46-5.19L207.5,119.35z"/>
		</g>
		<g class="st1">
			<defs>
				<path id="SVGID_29_" class="st1" d="M155.13,173.7c0.14,0.06,0.31,0.17,0.44,0.24c0.48,0.26,0.97,0.53,1.45,0.79
					c0.63,0.34,1.26,0.69,1.9,1.03c3.71,2.02,7.42,4.04,11.13,6.06c-0.81-0.31-1.6-0.67-2.36-1.09l-14.92-8.12
					C153.53,173.02,154.32,173.38,155.13,173.7z"/>
			</defs>
			<clipPath id="SVGID_30_">
				<use xlink:href="#SVGID_29_"  style="overflow:visible;"/>
			</clipPath>
			<g class="st42">
				<path class="st4" d="M167.7,180.73l-14.92-8.12c0.24,0.13,0.48,0.25,0.72,0.37l14.92,8.12
					C168.18,180.98,167.94,180.86,167.7,180.73"/>
				<path class="st3" d="M168.42,181.1l-14.92-8.12c1.18,0.58,2.43,1.05,3.74,1.38l14.92,8.12
					C170.86,182.15,169.61,181.68,168.42,181.1"/>
			</g>
		</g>
		<g class="st1">
			<defs>
				<path id="SVGID_31_" class="st1" d="M171.86,173.06l-14.92-8.12c2.45,1.33,5.35,1.9,8.46,1.46l14.92,8.12
					C177.21,174.95,174.31,174.39,171.86,173.06z"/>
			</defs>
			<clipPath id="SVGID_32_">
				<use xlink:href="#SVGID_31_"  style="overflow:visible;"/>
			</clipPath>
			<g class="st43">
				<path class="st15" d="M171.86,173.06l-14.92-8.12c0.16,0.09,0.32,0.17,0.48,0.25l14.92,8.12
					C172.18,173.23,172.02,173.14,171.86,173.06"/>
				<path class="st16" d="M172.35,173.31l-14.92-8.12c0.79,0.39,1.63,0.7,2.51,0.93l14.92,8.12
					C173.98,174.01,173.14,173.7,172.35,173.31"/>
				<path class="st17" d="M174.85,174.23l-14.92-8.12c1.71,0.44,3.55,0.55,5.47,0.28l14.92,8.12
					C178.4,174.78,176.56,174.67,174.85,174.23"/>
			</g>
		</g>
		<g class="st1">
			<defs>
				<path id="SVGID_33_" class="st1" d="M173.93,133.6l14.92,8.12c4.44,2.41,7.39,7.35,7.37,13.44
					c-0.02,9.44-7.16,18.13-15.91,19.36l-14.92-8.12c8.75-1.23,15.89-9.91,15.91-19.36C181.32,140.95,178.37,136.01,173.93,133.6z"
					/>
			</defs>
			<clipPath id="SVGID_34_">
				<use xlink:href="#SVGID_33_"  style="overflow:visible;"/>
			</clipPath>
			<g class="st44">
				<path class="st17" d="M180.32,174.51l-14.92-8.12c1.61-0.23,3.16-0.7,4.63-1.39l14.92,8.12
					C183.49,173.81,181.93,174.29,180.32,174.51"/>
				<path class="st16" d="M184.95,173.12L170.03,165c0.9-0.42,1.76-0.92,2.58-1.49l14.92,8.12
					C186.71,172.2,185.85,172.7,184.95,173.12"/>
				<path class="st15" d="M187.53,171.63l-14.92-8.12c0.67-0.46,1.31-0.97,1.92-1.52l14.92,8.12
					C188.85,170.66,188.2,171.17,187.53,171.63"/>
				<path class="st19" d="M189.46,170.11l-14.92-8.12c0.57-0.51,1.11-1.06,1.62-1.64l14.92,8.12
					C190.57,169.05,190.03,169.6,189.46,170.11"/>
				<path class="st20" d="M191.08,168.47l-14.92-8.12c0.51-0.58,0.99-1.18,1.43-1.82l14.92,8.12
					C192.07,167.29,191.59,167.89,191.08,168.47"/>
				<path class="st21" d="M192.51,166.65l-14.92-8.12c0.47-0.67,0.9-1.37,1.3-2.1l14.92,8.12
					C193.42,165.28,192.98,165.98,192.51,166.65"/>
				<path class="st22" d="M193.81,164.55l-14.92-8.12c0.46-0.86,0.87-1.75,1.2-2.67l14.92,8.12
					C194.67,162.8,194.27,163.69,193.81,164.55"/>
				<path class="st23" d="M195.01,161.88l-14.92-8.12c0.78-2.13,1.22-4.4,1.22-6.72c0.01-6.09-2.94-11.03-7.37-13.44l14.92,8.12
					c4.44,2.41,7.39,7.35,7.37,13.44C196.23,157.48,195.79,159.75,195.01,161.88"/>
			</g>
		</g>
		<g class="st1">
			<defs>
				<path id="SVGID_35_" class="st1" d="M179.29,126.63c-0.39-0.25-0.8-0.49-1.21-0.71l14.92,8.12c0.41,0.22,0.81,0.46,1.21,0.71
					C189.74,132.32,183.68,129.23,179.29,126.63z"/>
			</defs>
			<clipPath id="SVGID_36_">
				<use xlink:href="#SVGID_35_"  style="overflow:visible;"/>
			</clipPath>
			<g class="st45">
				<path class="st11" d="M194.22,134.75l-14.92-8.12c-0.39-0.25-0.8-0.49-1.21-0.71l14.92,8.12
					C193.42,134.26,193.82,134.5,194.22,134.75"/>
			</g>
		</g>
		<g>
			<path class="st46" d="M227.18,85.23c8.75-1.23,15.85,5.45,15.83,14.89c-0.02,9.44-7.15,18.13-15.9,19.36
				c-8.75,1.23-15.86-5.46-15.84-14.9C211.29,95.14,218.43,86.46,227.18,85.23z"/>
		</g>
		<g class="st1">
			<defs>
				<path id="SVGID_37_" class="st1" d="M165.46,132.14c3.11-0.44,6.02,0.13,8.47,1.46l14.92,8.12c-2.45-1.33-5.36-1.9-8.47-1.46
					C175.91,137.82,169.94,134.57,165.46,132.14z"/>
			</defs>
			<clipPath id="SVGID_38_">
				<use xlink:href="#SVGID_37_"  style="overflow:visible;"/>
			</clipPath>
			<g class="st47">
				<path class="st48" d="M180.39,140.25l-14.92-8.12c1.92-0.27,3.77-0.16,5.47,0.28l14.92,8.12
					C184.16,140.1,182.31,139.98,180.39,140.25"/>
				<path class="st49" d="M185.86,140.54l-14.92-8.12c0.88,0.23,1.72,0.54,2.51,0.93l14.92,8.12
					C187.58,141.07,186.74,140.76,185.86,140.54"/>
				<path class="st50" d="M188.37,141.46l-14.92-8.12c0.16,0.08,0.33,0.16,0.48,0.25l14.92,8.12
					C188.7,141.63,188.54,141.54,188.37,141.46"/>
			</g>
		</g>
		<g class="st1">
			<defs>
				<path id="SVGID_39_" class="st1" d="M156.94,164.94c-2.72-1.48-4.87-3.9-6.13-6.95c4.97,2.71,9.95,5.41,14.92,8.12
					c1.26,3.05,3.42,5.47,6.13,6.95C167.38,170.62,161.41,167.37,156.94,164.94z"/>
			</defs>
			<clipPath id="SVGID_40_">
				<use xlink:href="#SVGID_39_"  style="overflow:visible;"/>
			</clipPath>
			<g class="st51">
				<path class="st52" d="M171.86,173.06l-14.92-8.12c-4.44-2.41-7.38-7.35-7.37-13.44c0-2.33,0.44-4.6,1.22-6.74l14.92,8.12
					c-0.78,2.13-1.22,4.41-1.22,6.74C164.48,165.7,167.42,170.64,171.86,173.06"/>
			</g>
		</g>
		<g>
			<path class="st53" d="M227.19,76.85c13.03-1.83,23.62,8.12,23.59,22.19c0,0.16,0,0.33-0.01,0.49
				c-0.27,13.89-10.8,26.55-23.68,28.36c-5.36,0.75-10.3-0.49-14.26-3.18c-2.07-1.41-3.87-3.21-5.33-5.34
				c-2.54-3.71-4.02-8.4-4.01-13.67c0.02-10.42,5.86-20.22,14.18-25.34C220.59,78.54,223.81,77.32,227.19,76.85z M227.11,119.49
				c8.75-1.23,15.88-9.92,15.9-19.36c0.02-9.44-7.08-16.12-15.83-14.89c-8.75,1.23-15.89,9.91-15.91,19.36
				C211.25,114.03,218.36,120.72,227.11,119.49"/>
		</g>
		<g>
			<path class="st54" d="M180.39,140.25c8.75-1.23,15.86,5.45,15.84,14.9c-0.02,9.44-7.16,18.13-15.91,19.36
				c-8.75,1.23-15.85-5.45-15.83-14.89C164.51,150.16,171.64,141.48,180.39,140.25z"/>
		</g>
		<g class="st1">
			<defs>
				<path id="SVGID_41_" class="st1" d="M149.57,151.5c0.02-9.45,7.15-18.13,15.9-19.36l14.92,8.12
					c-8.75,1.23-15.88,9.91-15.9,19.36c0,2.36,0.44,4.55,1.24,6.49c-4.97-2.71-9.95-5.41-14.92-8.12
					C150,156.05,149.56,153.86,149.57,151.5z"/>
			</defs>
			<clipPath id="SVGID_42_">
				<use xlink:href="#SVGID_41_"  style="overflow:visible;"/>
			</clipPath>
			<g class="st55">
				<path class="st52" d="M171.86,173.06l-14.92-8.12c-4.44-2.41-7.38-7.35-7.37-13.44c0-2.33,0.44-4.6,1.22-6.74l14.92,8.12
					c-0.78,2.13-1.22,4.41-1.22,6.74C164.48,165.7,167.42,170.64,171.86,173.06"/>
				<path class="st56" d="M165.71,152.88l-14.92-8.12c0.34-0.92,0.74-1.82,1.2-2.67l14.92,8.12
					C166.45,151.07,166.05,151.96,165.71,152.88"/>
				<path class="st57" d="M166.92,150.21l-14.92-8.12c0.39-0.73,0.82-1.43,1.3-2.1l14.92,8.12
					C167.74,148.78,167.31,149.48,166.92,150.21"/>
				<path class="st58" d="M168.21,148.11l-14.92-8.12c0.44-0.63,0.92-1.24,1.43-1.82l14.92,8.12
					C169.13,146.87,168.66,147.47,168.21,148.11"/>
				<path class="st59" d="M169.64,146.29l-14.92-8.12c0.51-0.58,1.05-1.13,1.62-1.64l14.92,8.12
					C170.7,145.16,170.15,145.71,169.64,146.29"/>
				<path class="st50" d="M171.27,144.65l-14.92-8.12c0.61-0.55,1.25-1.06,1.92-1.52l14.92,8.12
					C172.52,143.59,171.88,144.1,171.27,144.65"/>
				<path class="st49" d="M173.19,143.13l-14.92-8.12c0.82-0.57,1.68-1.07,2.58-1.49l14.92,8.12
					C174.87,142.07,174.01,142.56,173.19,143.13"/>
				<path class="st48" d="M175.76,141.65l-14.92-8.12c1.46-0.69,3.02-1.17,4.63-1.39l14.92,8.12
					C178.78,140.48,177.23,140.96,175.76,141.65"/>
			</g>
		</g>
		<g class="st1">
			<defs>
				<path id="SVGID_43_" class="st1" d="M167.7,180.73l-14.92-8.12c-6.61-3.6-11-10.95-10.98-20.02c0-1.01,0.06-2.02,0.17-3.01
					c0.32-2.92,1.08-5.75,2.2-8.41c3.84-9.07,11.96-16.11,21.31-17.42c4.63-0.65,8.96,0.19,12.61,2.17l14.92,8.12
					c-3.65-1.98-7.97-2.82-12.61-2.17c-9.36,1.31-17.47,8.35-21.31,17.42c-1.13,2.66-1.89,5.49-2.2,8.41c-0.11,1-0.17,2-0.17,3.01
					C156.7,169.78,161.09,177.13,167.7,180.73z"/>
			</defs>
			<clipPath id="SVGID_44_">
				<use xlink:href="#SVGID_43_"  style="overflow:visible;"/>
			</clipPath>
			<g class="st60">
				<path class="st23" d="M167.7,180.73l-14.92-8.12c-6.61-3.6-11-10.95-10.98-20.02c0-1.01,0.06-2.02,0.17-3.01
					c0.26-2.42,0.83-4.78,1.66-7.03l14.92,8.12c-0.83,2.25-1.39,4.61-1.66,7.03c-0.11,1-0.17,2-0.17,3.01
					C156.7,169.78,161.09,177.13,167.7,180.73"/>
				<path class="st22" d="M158.54,150.67l-14.92-8.12c0.17-0.47,0.35-0.93,0.55-1.38c0.37-0.88,0.79-1.75,1.24-2.59l14.92,8.12
					c-0.45,0.84-0.87,1.71-1.24,2.59C158.9,149.74,158.72,150.21,158.54,150.67"/>
				<path class="st21" d="M160.33,146.7l-14.92-8.12c0.58-1.08,1.23-2.13,1.93-3.13l14.92,8.12
					C161.56,144.57,160.92,145.61,160.33,146.7"/>
				<path class="st20" d="M162.26,143.57l-14.92-8.12c0.66-0.94,1.37-1.85,2.13-2.71l14.92,8.12
					C163.64,141.72,162.93,142.62,162.26,143.57"/>
				<path class="st19" d="M164.4,140.86l-14.92-8.12c0.76-0.86,1.57-1.68,2.41-2.44l14.92,8.12
					C165.96,139.18,165.16,140,164.4,140.86"/>
				<path class="st15" d="M166.81,138.42l-14.92-8.12c0.91-0.82,1.87-1.58,2.87-2.27l14.92,8.12
					C168.68,136.84,167.72,137.6,166.81,138.42"/>
				<path class="st16" d="M169.68,136.15l-14.92-8.12c1.21-0.84,2.49-1.58,3.81-2.2l14.92,8.12
					C172.16,134.58,170.89,135.31,169.68,136.15"/>
				<path class="st17" d="M173.49,133.95l-14.92-8.12c2.19-1.03,4.51-1.75,6.92-2.09c2.88-0.4,5.63-0.23,8.18,0.43l14.92,8.12
					c-2.55-0.66-5.31-0.83-8.18-0.43C178,132.21,175.68,132.92,173.49,133.95"/>
				<path class="st16" d="M188.59,132.29l-14.92-8.12c1.3,0.34,2.54,0.8,3.72,1.38l14.92,8.12
					C191.13,133.09,189.88,132.63,188.59,132.29"/>
				<path class="st15" d="M192.3,133.67l-14.92-8.12c0.24,0.12,0.47,0.24,0.71,0.37l14.92,8.12
					C192.78,133.91,192.54,133.79,192.3,133.67"/>
			</g>
		</g>
		<g class="st1">
			<defs>
				<path id="SVGID_45_" class="st1" d="M120.33,222.29l-14.92-8.12c-6.34-3.45-11.44-9-14.6-15.99l14.92,8.12
					C108.88,213.29,113.98,218.84,120.33,222.29z"/>
			</defs>
			<clipPath id="SVGID_46_">
				<use xlink:href="#SVGID_45_"  style="overflow:visible;"/>
			</clipPath>
			<g class="st61">
				<path class="st11" d="M120.33,222.29l-14.92-8.12c-6.34-3.45-11.44-9-14.6-15.99l14.92,8.12
					C108.88,213.29,113.98,218.84,120.33,222.29"/>
			</g>
		</g>
		<g class="st1">
			<defs>
				<path id="SVGID_47_" class="st1" d="M90.25,184.06c0.01-5.91-1.85-11.09-4.97-14.98c4.97,2.71,9.95,5.41,14.92,8.12
					c3.12,3.89,4.98,9.07,4.97,14.98c-0.01,4.51-1.11,8.91-3.03,12.86l-14.92-8.12C89.14,192.97,90.25,188.57,90.25,184.06z"/>
			</defs>
			<clipPath id="SVGID_48_">
				<use xlink:href="#SVGID_47_"  style="overflow:visible;"/>
			</clipPath>
			<g class="st62">
				<path class="st10" d="M102.15,205.04l-14.92-8.12c0.45-0.92,0.85-1.87,1.21-2.84l14.92,8.12
					C103,203.17,102.6,204.12,102.15,205.04"/>
				<path class="st11" d="M103.36,202.2l-14.92-8.12c1.17-3.17,1.81-6.57,1.82-10.03c0.01-7.88-3.29-14.46-8.49-18.42l14.92,8.12
					c5.2,3.95,8.51,10.54,8.49,18.42C105.17,195.64,104.52,199.03,103.36,202.2"/>
			</g>
		</g>
		<g class="st1">
			<defs>
				<path id="SVGID_49_" class="st1" d="M85.28,169.08c-1.04-1.3-2.22-2.45-3.52-3.44l14.92,8.12c1.3,0.99,2.48,2.14,3.52,3.44
					c-2.49-1.35-4.97-2.71-7.46-4.06c-1.29-0.7-2.58-1.4-3.87-2.11c-0.55-0.3-1.29-0.7-1.85-1.01
					C86.5,169.74,85.74,169.46,85.28,169.08z"/>
			</defs>
			<clipPath id="SVGID_50_">
				<use xlink:href="#SVGID_49_"  style="overflow:visible;"/>
			</clipPath>
			<g class="st63">
				<path class="st11" d="M103.36,202.2l-14.92-8.12c1.17-3.17,1.81-6.57,1.82-10.03c0.01-7.88-3.29-14.46-8.49-18.42l14.92,8.12
					c5.2,3.95,8.51,10.54,8.49,18.42C105.17,195.64,104.52,199.03,103.36,202.2"/>
			</g>
		</g>
		<g>
			<linearGradient id="SVGID_51_" gradientUnits="userSpaceOnUse" x1="96.6838" y1="162.8804" x2="271.0733" y2="162.8804">
				<stop  offset="0" style="stop-color:#3282ED"/>
				<stop  offset="1" style="stop-color:#60A2F0"/>
			</linearGradient>
			<path class="st64" d="M250.78,99.52c12.08,4.95,20.33,17.35,20.3,32.99c-0.04,22.22-16.75,42.58-37.34,45.47
				c-2.03,0.29-4.01,0.38-5.96,0.32c-6.84,10.13-17.33,17.48-29.08,19.13c-7.75,1.09-14.95-0.45-20.91-3.99
				c-5.6,16.72-19.89,30.07-36.61,32.42c-15.74,2.21-29.29-5.95-35.45-19.57c-1.22-0.37-2.41-0.79-3.58-1.26
				c1.92-3.95,3.02-8.35,3.03-12.86c0.01-7.88-3.29-14.46-8.49-18.42l10.8-17.01c3.48,1.69,7.52,2.38,11.83,1.77
				c5.7-0.8,10.94-3.73,15.04-7.95l22.54,7.12c-0.11,1-0.17,2-0.17,3.01c-0.03,14.07,10.56,24.02,23.59,22.19
				c13.03-1.83,23.66-14.77,23.68-28.83c0.01-5.48-1.59-10.34-4.32-14.12l13.16-15.25c3.96,2.7,8.91,3.93,14.26,3.18
				C239.98,126.07,250.51,113.41,250.78,99.52z"/>
		</g>
		<g class="st1">
			<defs>
				<path id="SVGID_52_" class="st1" d="M202.09,71.85l14.92,8.12c-5.73-3.12-12.52-4.44-19.82-3.43l-14.92-8.12
					C189.57,67.41,196.36,68.73,202.09,71.85z"/>
			</defs>
			<clipPath id="SVGID_53_">
				<use xlink:href="#SVGID_52_"  style="overflow:visible;"/>
			</clipPath>
			<g class="st65">
				<path class="st6" d="M197.2,76.53l-14.92-8.12c4.52-0.63,8.85-0.35,12.86,0.69l14.92,8.12
					C206.05,76.18,201.72,75.91,197.2,76.53"/>
				<path class="st3" d="M210.06,77.22l-14.92-8.12c2.04,0.53,4,1.26,5.85,2.17l14.92,8.12C214.05,78.48,212.1,77.75,210.06,77.22"
					/>
				<path class="st4" d="M215.91,79.39l-14.92-8.12c0.37,0.18,0.74,0.38,1.11,0.57l14.92,8.12
					C216.65,79.77,216.28,79.57,215.91,79.39"/>
			</g>
		</g>
		<g>
			<polygon class="st66" points="139.67,143.15 124.74,135.04 144.17,141.17 159.09,149.29 			"/>
		</g>
		<g class="st1">
			<defs>
				<path id="SVGID_54_" class="st1" d="M128.07,121.57c0.01-5.28-1.47-9.97-4.02-13.69c4.97,2.71,9.95,5.41,14.92,8.12
					c2.54,3.72,4.02,8.41,4.02,13.69c-0.01,4.74-1.22,9.36-3.33,13.46l-14.92-8.12C126.85,130.93,128.06,126.32,128.07,121.57z"/>
			</defs>
			<clipPath id="SVGID_55_">
				<use xlink:href="#SVGID_54_"  style="overflow:visible;"/>
			</clipPath>
			<g class="st67">
				<path class="st10" d="M139.67,143.15l-14.92-8.12c0.57-1.11,1.07-2.26,1.51-3.44l14.92,8.12
					C140.74,140.9,140.24,142.04,139.67,143.15"/>
				<path class="st11" d="M141.17,139.72l-14.92-8.12c1.17-3.17,1.81-6.57,1.82-10.03c0.02-9.07-4.37-16.43-10.99-20.03l14.92,8.12
					c6.61,3.6,11,10.96,10.99,20.03C142.99,133.15,142.34,136.54,141.17,139.72"/>
			</g>
		</g>
		<g class="st1">
			<defs>
				<path id="SVGID_56_" class="st1" d="M107.48,156.75l-14.92-8.12c3.48,1.69,7.52,2.38,11.83,1.77c5.7-0.8,10.94-3.73,15.04-7.95
					l14.92,8.12c-4.09,4.22-9.34,7.14-15.04,7.95C115,159.13,110.96,158.45,107.48,156.75z"/>
			</defs>
			<clipPath id="SVGID_57_">
				<use xlink:href="#SVGID_56_"  style="overflow:visible;"/>
			</clipPath>
			<g class="st68">
				<path class="st3" d="M107.48,156.75l-14.92-8.12c1.16,0.56,2.38,1.01,3.65,1.34l14.92,8.12
					C109.85,157.77,108.64,157.32,107.48,156.75"/>
				<path class="st6" d="M111.12,158.1l-14.92-8.12c2.55,0.66,5.31,0.83,8.19,0.43c2.41-0.34,4.73-1.05,6.92-2.09l14.92,8.12
					c-2.19,1.03-4.51,1.75-6.92,2.09C116.43,158.93,113.68,158.76,111.12,158.1"/>
				<path class="st3" d="M126.23,156.44l-14.92-8.12c1.32-0.62,2.6-1.36,3.81-2.2l14.92,8.12
					C128.83,155.08,127.55,155.82,126.23,156.44"/>
				<path class="st4" d="M130.04,154.24l-14.92-8.12c1-0.69,1.96-1.45,2.87-2.27l14.92,8.12C132,152.79,131.04,153.55,130.04,154.24
					"/>
				<path class="st7" d="M132.91,151.97l-14.92-8.12c0.49-0.45,0.98-0.91,1.44-1.39l14.92,8.12
					C133.88,151.06,133.4,151.52,132.91,151.97"/>
			</g>
		</g>
		<g>
			<polygon class="st69" points="96.68,173.76 81.76,165.64 92.55,148.64 107.48,156.75 			"/>
		</g>
		<g class="st1">
			<defs>
				<path id="SVGID_58_" class="st1" d="M91.77,148.23c0.26,0.14,0.52,0.27,0.78,0.4l14.92,8.12c-0.26-0.13-0.53-0.26-0.78-0.4
					C102.22,153.92,96.25,150.67,91.77,148.23z"/>
			</defs>
			<clipPath id="SVGID_59_">
				<use xlink:href="#SVGID_58_"  style="overflow:visible;"/>
			</clipPath>
			<g class="st70">
				<path class="st15" d="M106.7,156.35l-14.92-8.12c0.23,0.13,0.47,0.25,0.71,0.37l14.92,8.12
					C107.16,156.6,106.93,156.48,106.7,156.35"/>
				<path class="st16" d="M107.4,156.72l-14.92-8.12c0.03,0.01,0.05,0.03,0.08,0.04l14.92,8.12
					C107.45,156.74,107.43,156.73,107.4,156.72"/>
			</g>
		</g>
		<g class="st1">
			<defs>
				<path id="SVGID_60_" class="st1" d="M110.86,148.68l-14.92-8.12c2.45,1.33,5.36,1.9,8.47,1.46l14.92,8.12
					C116.21,150.58,113.31,150.01,110.86,148.68z"/>
			</defs>
			<clipPath id="SVGID_61_">
				<use xlink:href="#SVGID_60_"  style="overflow:visible;"/>
			</clipPath>
			<g class="st71">
				<path class="st15" d="M110.86,148.68l-14.92-8.12c0.16,0.09,0.32,0.17,0.48,0.25l14.92,8.12
					C111.18,148.85,111.02,148.77,110.86,148.68"/>
				<path class="st16" d="M111.34,148.93l-14.92-8.12c0.8,0.39,1.64,0.7,2.51,0.93l14.92,8.12
					C112.98,149.63,112.14,149.32,111.34,148.93"/>
				<path class="st17" d="M113.85,149.86l-14.92-8.12c1.71,0.44,3.55,0.55,5.47,0.28l14.92,8.12
					C117.4,150.41,115.56,150.3,113.85,149.86"/>
			</g>
		</g>
		<g class="st1">
			<defs>
				<path id="SVGID_62_" class="st1" d="M124.06,107.88c-1.83-2.67-4.21-4.83-6.97-6.34l14.92,8.12c2.77,1.5,5.14,3.67,6.97,6.34
					c-2.16-1.18-4.32-2.35-6.48-3.53c-1.93-1.05-3.86-2.1-5.78-3.15c-0.54-0.29-1.26-0.69-1.8-0.98
					C124.65,108.21,124.27,108.08,124.06,107.88z"/>
			</defs>
			<clipPath id="SVGID_63_">
				<use xlink:href="#SVGID_62_"  style="overflow:visible;"/>
			</clipPath>
			<g class="st72">
				<path class="st11" d="M141.17,139.72l-14.92-8.12c1.17-3.17,1.81-6.57,1.82-10.03c0.02-9.07-4.37-16.43-10.99-20.03l14.92,8.12
					c6.61,3.6,11,10.96,10.99,20.03C142.99,133.15,142.34,136.54,141.17,139.72"/>
			</g>
		</g>
		<g class="st1">
			<defs>
				<path id="SVGID_64_" class="st1" d="M81.76,165.64c-0.79-0.6-1.62-1.14-2.49-1.61l14.92,8.12c0.87,0.47,1.7,1.01,2.49,1.61
					C92.21,171.33,86.04,168.41,81.76,165.64z"/>
			</defs>
			<clipPath id="SVGID_65_">
				<use xlink:href="#SVGID_64_"  style="overflow:visible;"/>
			</clipPath>
			<g class="st73">
				<path class="st23" d="M96.68,173.76l-14.92-8.12c-0.79-0.6-1.62-1.14-2.49-1.61l14.92,8.12
					C95.06,172.62,95.9,173.16,96.68,173.76"/>
			</g>
		</g>
		<g>
			<polygon class="st74" points="134.35,150.58 119.42,142.46 141.96,149.58 156.89,157.7 			"/>
		</g>
		<g class="st1">
			<defs>
				<path id="SVGID_66_" class="st1" d="M119.42,142.46c2.11-2.17,3.91-4.68,5.32-7.43l14.92,8.12c-1.41,2.74-3.21,5.26-5.32,7.43
					C129.87,148.15,123.9,144.9,119.42,142.46z"/>
			</defs>
			<clipPath id="SVGID_67_">
				<use xlink:href="#SVGID_66_"  style="overflow:visible;"/>
			</clipPath>
			<g class="st75">
				<path class="st19" d="M134.35,150.58l-14.92-8.12c0.33-0.34,0.66-0.69,0.97-1.05l14.92,8.12
					C135,149.89,134.68,150.24,134.35,150.58"/>
				<path class="st20" d="M135.32,149.53l-14.92-8.12c0.76-0.86,1.47-1.76,2.13-2.7l14.92,8.12
					C136.79,147.77,136.08,148.67,135.32,149.53"/>
				<path class="st21" d="M137.45,146.83l-14.92-8.12c0.7-1,1.35-2.05,1.93-3.13l14.92,8.12
					C138.8,144.78,138.15,145.83,137.45,146.83"/>
				<path class="st22" d="M139.38,143.7l-14.92-8.12c0.1-0.18,0.19-0.36,0.28-0.54l14.92,8.12
					C139.57,143.34,139.48,143.52,139.38,143.7"/>
			</g>
		</g>
		<g class="st1">
			<defs>
				<path id="SVGID_68_" class="st1" d="M112.92,109.22l14.92,8.12c4.44,2.42,7.39,7.36,7.38,13.45
					c-0.02,9.44-7.15,18.12-15.9,19.35l-14.92-8.12c8.75-1.23,15.88-9.91,15.9-19.35C120.31,116.58,117.36,111.63,112.92,109.22z"/>
			</defs>
			<clipPath id="SVGID_69_">
				<use xlink:href="#SVGID_68_"  style="overflow:visible;"/>
			</clipPath>
			<g class="st76">
				<path class="st17" d="M119.33,150.14l-14.92-8.12c1.61-0.23,3.16-0.7,4.63-1.39l14.92,8.12
					C122.49,149.43,120.93,149.91,119.33,150.14"/>
				<path class="st16" d="M123.95,148.75l-14.92-8.12c0.89-0.42,1.76-0.92,2.58-1.49l14.92,8.12
					C125.71,147.83,124.85,148.33,123.95,148.75"/>
				<path class="st15" d="M126.53,147.26l-14.92-8.12c0.67-0.46,1.31-0.97,1.92-1.52l14.92,8.12
					C127.84,146.29,127.2,146.8,126.53,147.26"/>
				<path class="st19" d="M128.45,145.74l-14.92-8.12c0.57-0.51,1.11-1.06,1.62-1.64l14.92,8.12
					C129.56,144.68,129.02,145.23,128.45,145.74"/>
				<path class="st20" d="M130.07,144.1l-14.92-8.12c0.51-0.58,0.99-1.18,1.43-1.82l14.92,8.12
					C131.06,142.92,130.58,143.52,130.07,144.1"/>
				<path class="st21" d="M131.51,142.28l-14.92-8.12c0.47-0.67,0.9-1.37,1.3-2.1l14.92,8.12
					C132.41,140.91,131.98,141.61,131.51,142.28"/>
				<path class="st22" d="M132.8,140.18l-14.92-8.12c0.46-0.86,0.87-1.75,1.2-2.67l14.92,8.12
					C133.67,138.43,133.26,139.33,132.8,140.18"/>
				<path class="st23" d="M134,137.51l-14.92-8.12c0.78-2.13,1.22-4.41,1.22-6.73c0.01-6.09-2.94-11.03-7.38-13.45l14.92,8.12
					c4.44,2.42,7.39,7.36,7.38,13.45C135.22,133.11,134.79,135.38,134,137.51"/>
			</g>
		</g>
		<g class="st1">
			<defs>
				<path id="SVGID_70_" class="st1" d="M104.47,107.76c2.19-0.31,4.27-0.12,6.17,0.48c4.97,2.71,9.95,5.41,14.92,8.12
					c-1.9-0.6-3.98-0.79-6.17-0.48C114.91,113.44,108.94,110.2,104.47,107.76z"/>
			</defs>
			<clipPath id="SVGID_71_">
				<use xlink:href="#SVGID_70_"  style="overflow:visible;"/>
			</clipPath>
			<g class="st77">
				<path class="st78" d="M119.39,115.88l-14.92-8.12c1.92-0.27,3.76-0.16,5.47,0.28l14.92,8.12
					C123.15,115.72,121.31,115.61,119.39,115.88"/>
				<path class="st79" d="M124.86,116.16l-14.92-8.12c0.87,0.23,1.71,0.54,2.51,0.93l14.92,8.12
					C126.57,116.7,125.73,116.38,124.86,116.16"/>
			</g>
		</g>
		<g class="st1">
			<defs>
				<path id="SVGID_72_" class="st1" d="M88.56,127.13c0.02-9.44,7.16-18.14,15.91-19.37l14.92,8.12
					c-8.75,1.23-15.89,9.92-15.91,19.37c-0.01,6.08,2.94,11.02,7.37,13.43l-14.92-8.12C91.49,138.15,88.55,133.21,88.56,127.13z"/>
			</defs>
			<clipPath id="SVGID_73_">
				<use xlink:href="#SVGID_72_"  style="overflow:visible;"/>
			</clipPath>
			<g class="st80">
				<path class="st81" d="M110.86,148.68l-14.92-8.12c-4.44-2.41-7.38-7.35-7.37-13.43c0-2.32,0.44-4.59,1.22-6.72l14.92,8.12
					c-0.78,2.13-1.22,4.4-1.22,6.72C103.47,141.33,106.42,146.26,110.86,148.68"/>
				<path class="st82" d="M104.7,128.52l-14.92-8.12c0.34-0.92,0.74-1.82,1.2-2.68l14.92,8.12
					C105.45,126.7,105.04,127.6,104.7,128.52"/>
				<path class="st83" d="M105.91,125.84l-14.92-8.12c0.39-0.73,0.83-1.43,1.3-2.1l14.92,8.12
					C106.73,124.41,106.3,125.12,105.91,125.84"/>
				<path class="st84" d="M107.21,123.74l-14.92-8.12c0.45-0.63,0.92-1.24,1.43-1.82l14.92,8.12
					C108.13,122.5,107.65,123.11,107.21,123.74"/>
				<path class="st85" d="M108.64,121.92l-14.92-8.12c0.51-0.58,1.05-1.13,1.62-1.64l14.92,8.12
					C109.69,120.79,109.15,121.34,108.64,121.92"/>
				<path class="st86" d="M110.26,120.28l-14.92-8.12c0.61-0.55,1.25-1.06,1.92-1.52l14.92,8.12
					C111.52,119.22,110.88,119.73,110.26,120.28"/>
				<path class="st79" d="M112.19,118.76l-14.92-8.12c0.82-0.57,1.68-1.07,2.58-1.49l14.92,8.12
					C113.87,117.69,113.01,118.19,112.19,118.76"/>
				<path class="st78" d="M114.77,117.27l-14.92-8.12c1.46-0.69,3.02-1.16,4.62-1.39l14.92,8.12
					C117.78,116.11,116.23,116.58,114.77,117.27"/>
			</g>
		</g>
		<g class="st1">
			<defs>
				<path id="SVGID_74_" class="st1" d="M106.7,156.35l-14.92-8.12c-1.95-1.06-3.7-2.44-5.2-4.1c-3.61-3.97-5.79-9.52-5.78-15.92
					c0.03-14.07,10.66-27.01,23.69-28.85l14.92,8.12c-13.03,1.83-23.67,14.78-23.69,28.85c-0.01,6.4,2.17,11.94,5.78,15.92
					C103,153.91,104.75,155.29,106.7,156.35z"/>
			</defs>
			<clipPath id="SVGID_75_">
				<use xlink:href="#SVGID_74_"  style="overflow:visible;"/>
			</clipPath>
			<g class="st87">
				<path class="st23" d="M106.7,156.35l-14.92-8.12c-1.95-1.06-3.7-2.44-5.2-4.1c-3.61-3.97-5.79-9.52-5.78-15.92
					c0.01-3.46,0.65-6.84,1.82-10.02l14.92,8.12c-1.17,3.17-1.81,6.56-1.82,10.02c-0.01,6.4,2.17,11.94,5.78,15.92
					C103,153.91,104.75,155.29,106.7,156.35"/>
				<path class="st22" d="M97.53,126.32l-14.92-8.12c0.5-1.37,1.11-2.71,1.79-3.99l14.92,8.12
					C98.64,123.61,98.03,124.95,97.53,126.32"/>
				<path class="st21" d="M99.32,122.33l-14.92-8.12c0.58-1.08,1.23-2.13,1.93-3.13l14.92,8.12
					C100.55,120.2,99.91,121.25,99.32,122.33"/>
				<path class="st20" d="M101.26,119.2l-14.92-8.12c0.66-0.95,1.38-1.85,2.14-2.71l14.92,8.12
					C102.63,117.35,101.92,118.26,101.26,119.2"/>
				<path class="st19" d="M103.39,116.49l-14.92-8.12c0.76-0.86,1.57-1.68,2.42-2.44l14.92,8.12
					C104.96,114.81,104.15,115.63,103.39,116.49"/>
				<path class="st15" d="M105.81,114.05l-14.92-8.12c0.91-0.82,1.87-1.58,2.87-2.27l14.92,8.12
					C107.68,112.47,106.72,113.23,105.81,114.05"/>
				<path class="st16" d="M108.68,111.78l-14.92-8.12c1.22-0.85,2.51-1.59,3.84-2.22l14.92,8.12
					C111.19,110.19,109.9,110.93,108.68,111.78"/>
				<path class="st17" d="M112.52,109.56l-14.92-8.12c2.18-1.02,4.49-1.74,6.89-2.07l14.92,8.12
					C117.01,107.83,114.7,108.54,112.52,109.56"/>
			</g>
		</g>
		<g class="st1">
			<defs>
				<path id="SVGID_76_" class="st1" d="M73.04,211.17l-14.92-8.12c2.45,1.33,5.35,1.9,8.46,1.46l14.92,8.12
					C78.39,213.06,75.48,212.5,73.04,211.17z"/>
			</defs>
			<clipPath id="SVGID_77_">
				<use xlink:href="#SVGID_76_"  style="overflow:visible;"/>
			</clipPath>
			<g class="st88">
				<path class="st15" d="M73.04,211.17l-14.92-8.12c0.16,0.09,0.32,0.17,0.48,0.25l14.92,8.12
					C73.36,211.34,73.2,211.25,73.04,211.17"/>
				<path class="st16" d="M73.52,211.42L58.6,203.3c0.79,0.39,1.63,0.7,2.51,0.93l14.92,8.12
					C75.15,212.12,74.31,211.81,73.52,211.42"/>
				<path class="st17" d="M76.03,212.34l-14.92-8.12c1.71,0.44,3.55,0.55,5.47,0.28l14.92,8.12
					C79.58,212.9,77.73,212.78,76.03,212.34"/>
			</g>
		</g>
		<g class="st1">
			<defs>
				<path id="SVGID_78_" class="st1" d="M56.27,201.84c4.97,2.71,9.95,5.41,14.92,8.12c0.58,0.45,1.19,0.86,1.84,1.21l-14.92-8.12
					C57.47,202.7,56.85,202.29,56.27,201.84z"/>
			</defs>
			<clipPath id="SVGID_79_">
				<use xlink:href="#SVGID_78_"  style="overflow:visible;"/>
			</clipPath>
			<g class="st89">
				<path class="st90" d="M73.04,211.17l-14.92-8.12c-4.44-2.41-7.38-7.35-7.37-13.44c0-2.32,0.44-4.6,1.22-6.73L66.89,191
					c-0.78,2.13-1.22,4.41-1.22,6.73C65.65,203.82,68.6,208.75,73.04,211.17"/>
			</g>
		</g>
		<g class="st1">
			<defs>
				<path id="SVGID_80_" class="st1" d="M75.1,171.71l14.92,8.12c4.44,2.42,7.39,7.36,7.38,13.44c-0.02,9.44-7.16,18.13-15.91,19.36
					l-14.92-8.12c8.75-1.23,15.89-9.91,15.91-19.36C82.49,179.06,79.54,174.12,75.1,171.71z"/>
			</defs>
			<clipPath id="SVGID_81_">
				<use xlink:href="#SVGID_80_"  style="overflow:visible;"/>
			</clipPath>
			<g class="st91">
				<path class="st17" d="M81.5,212.63l-14.92-8.12c1.61-0.23,3.16-0.7,4.63-1.39l14.92,8.12C84.66,211.92,83.11,212.4,81.5,212.63"
					/>
				<path class="st16" d="M86.13,211.23l-14.92-8.12c0.9-0.42,1.76-0.92,2.58-1.49l14.92,8.12
					C87.89,210.31,87.02,210.81,86.13,211.23"/>
				<path class="st15" d="M88.71,209.75l-14.92-8.12c0.67-0.46,1.31-0.97,1.92-1.52l14.92,8.12
					C90.02,208.77,89.38,209.28,88.71,209.75"/>
				<path class="st19" d="M90.63,208.22l-14.92-8.12c0.57-0.51,1.11-1.06,1.62-1.64l14.92,8.12
					C91.74,207.16,91.2,207.71,90.63,208.22"/>
				<path class="st20" d="M92.26,206.58l-14.92-8.12c0.51-0.58,0.99-1.18,1.43-1.82l14.92,8.12
					C93.24,205.4,92.76,206.01,92.26,206.58"/>
				<path class="st21" d="M93.69,204.76l-14.92-8.12c0.47-0.67,0.9-1.37,1.3-2.1l14.92,8.12C94.59,203.39,94.16,204.09,93.69,204.76
					"/>
				<path class="st22" d="M94.98,202.66l-14.92-8.12c0.46-0.86,0.87-1.75,1.2-2.67l14.92,8.12
					C95.85,200.91,95.45,201.8,94.98,202.66"/>
				<path class="st23" d="M96.19,199.99l-14.92-8.12c0.78-2.13,1.22-4.4,1.22-6.72c0.01-6.09-2.94-11.03-7.38-13.44l14.92,8.12
					c4.44,2.42,7.39,7.36,7.38,13.44C97.4,195.59,96.97,197.86,96.19,199.99"/>
			</g>
		</g>
		<g class="st1">
			<defs>
				<path id="SVGID_82_" class="st1" d="M66.64,170.25c3.11-0.44,6.01,0.13,8.46,1.46l14.92,8.12c-2.45-1.33-5.35-1.9-8.46-1.46
					C77.09,175.93,71.12,172.68,66.64,170.25z"/>
			</defs>
			<clipPath id="SVGID_83_">
				<use xlink:href="#SVGID_82_"  style="overflow:visible;"/>
			</clipPath>
			<g class="st92">
				<path class="st93" d="M81.56,178.37l-14.92-8.12c1.92-0.27,3.76-0.16,5.47,0.28l14.92,8.12
					C85.33,178.21,83.49,178.1,81.56,178.37"/>
				<path class="st94" d="M87.03,178.65l-14.92-8.12c0.88,0.23,1.72,0.54,2.51,0.93l14.92,8.12
					C88.75,179.18,87.91,178.87,87.03,178.65"/>
				<path class="st95" d="M89.54,179.57l-14.92-8.12c0.16,0.08,0.33,0.16,0.48,0.25l14.92,8.12
					C89.87,179.74,89.71,179.66,89.54,179.57"/>
			</g>
		</g>
		<g class="st1">
			<defs>
				<path id="SVGID_84_" class="st1" d="M50.74,189.61c0.02-9.44,7.15-18.13,15.9-19.36c2.49,1.35,4.97,2.71,7.46,4.06
					c1.21,0.66,2.42,1.32,3.63,1.98c0.42,0.23,0.98,0.53,1.4,0.76c0.2,0.11,0.45,0.37,0.68,0.37l1.74,0.95
					c-8.75,1.23-15.88,9.92-15.9,19.36c0,2.36,0.44,4.55,1.24,6.49c-4.97-2.71-9.95-5.41-14.92-8.12
					C51.18,194.16,50.74,191.97,50.74,189.61z"/>
			</defs>
			<clipPath id="SVGID_85_">
				<use xlink:href="#SVGID_84_"  style="overflow:visible;"/>
			</clipPath>
			<g class="st96">
				<path class="st90" d="M73.04,211.17l-14.92-8.12c-4.44-2.41-7.38-7.35-7.37-13.44c0-2.32,0.44-4.6,1.22-6.73L66.89,191
					c-0.78,2.13-1.22,4.41-1.22,6.73C65.65,203.82,68.6,208.75,73.04,211.17"/>
				<path class="st97" d="M66.89,191l-14.92-8.12c0.34-0.92,0.74-1.82,1.2-2.68l14.92,8.12C67.63,189.18,67.23,190.08,66.89,191"/>
				<path class="st98" d="M68.09,188.32l-14.92-8.12c0.39-0.73,0.82-1.43,1.3-2.1l14.92,8.12C68.92,186.89,68.48,187.6,68.09,188.32
					"/>
				<path class="st99" d="M69.39,186.22l-14.92-8.12c0.44-0.63,0.92-1.24,1.43-1.82l14.92,8.12
					C70.31,184.98,69.83,185.59,69.39,186.22"/>
				<path class="st100" d="M70.82,184.4l-14.92-8.12c0.51-0.58,1.05-1.13,1.62-1.64l14.92,8.12
					C71.87,183.28,71.33,183.82,70.82,184.4"/>
				<path class="st95" d="M72.44,182.76l-14.92-8.12c0.61-0.55,1.25-1.06,1.92-1.52l14.92,8.12
					C73.7,181.71,73.06,182.21,72.44,182.76"/>
				<path class="st94" d="M74.37,181.24l-14.92-8.12c0.82-0.57,1.68-1.07,2.58-1.49l14.92,8.12
					C76.05,180.18,75.19,180.67,74.37,181.24"/>
				<path class="st93" d="M76.94,179.76l-14.92-8.12c1.46-0.69,3.01-1.16,4.62-1.39l14.92,8.12
					C79.96,178.59,78.41,179.07,76.94,179.76"/>
			</g>
		</g>
		<g class="st1">
			<defs>
				<path id="SVGID_86_" class="st1" d="M68.88,218.84l-14.92-8.12c-6.61-3.6-11-10.95-10.98-20.02c0-0.12,0-0.23,0-0.35
					c0.2-13.94,10.76-26.68,23.68-28.49c2.94-0.41,5.76-0.23,8.36,0.47c1.5,0.4,2.92,0.97,4.25,1.7l14.92,8.12
					c-1.33-0.73-2.76-1.3-4.25-1.7c-2.6-0.7-5.42-0.89-8.36-0.47c-12.93,1.82-23.48,14.55-23.68,28.49c0,0.12,0,0.23,0,0.35
					C57.88,207.89,62.27,215.24,68.88,218.84z"/>
			</defs>
			<clipPath id="SVGID_87_">
				<use xlink:href="#SVGID_86_"  style="overflow:visible;"/>
			</clipPath>
			<g class="st101">
				<path class="st23" d="M68.88,218.84l-14.92-8.12c-6.61-3.6-11-10.95-10.98-20.02c0-0.12,0-0.23,0-0.35
					c0.05-3.33,0.69-6.6,1.81-9.66l14.92,8.12c-1.12,3.06-1.76,6.33-1.81,9.66c0,0.12,0,0.23,0,0.35
					C57.88,207.89,62.27,215.24,68.88,218.84"/>
				<path class="st22" d="M59.71,188.81l-14.92-8.12c0.5-1.38,1.11-2.71,1.8-4l14.92,8.12C60.82,186.1,60.21,187.43,59.71,188.81"/>
				<path class="st21" d="M61.51,184.81l-14.92-8.12c0.58-1.08,1.23-2.13,1.93-3.13l14.92,8.12
					C62.73,182.68,62.09,183.73,61.51,184.81"/>
				<path class="st20" d="M63.44,181.68l-14.92-8.12c0.66-0.95,1.38-1.85,2.13-2.71l14.92,8.12
					C64.81,179.83,64.1,180.74,63.44,181.68"/>
				<path class="st19" d="M65.57,178.97l-14.92-8.12c0.76-0.86,1.57-1.68,2.42-2.44l14.92,8.12
					C67.14,177.29,66.33,178.11,65.57,178.97"/>
				<path class="st15" d="M67.99,176.53l-14.92-8.12c0.91-0.82,1.86-1.57,2.86-2.26l14.92,8.12
					C69.85,174.96,68.9,175.71,67.99,176.53"/>
				<path class="st16" d="M70.85,174.27l-14.92-8.12c1.22-0.85,2.51-1.59,3.84-2.22l14.92,8.12
					C73.35,172.68,72.07,173.42,70.85,174.27"/>
				<path class="st17" d="M74.69,172.05l-14.92-8.12c2.18-1.02,4.5-1.74,6.89-2.07c2.88-0.4,5.64-0.23,8.19,0.43l14.92,8.12
					c-2.55-0.66-5.31-0.83-8.19-0.43C79.18,170.32,76.87,171.03,74.69,172.05"/>
				<path class="st16" d="M89.77,170.41l-14.92-8.12c0.06,0.01,0.11,0.03,0.17,0.04c1.24,0.33,2.42,0.78,3.55,1.33l14.92,8.12
					c-1.13-0.55-2.31-1-3.55-1.33C89.89,170.44,89.83,170.42,89.77,170.41"/>
				<path class="st15" d="M93.49,171.79l-14.92-8.12c0.24,0.12,0.47,0.24,0.7,0.36l14.92,8.12
					C93.96,172.02,93.73,171.9,93.49,171.79"/>
			</g>
		</g>
		<g>
			<polygon class="st102" points="89.94,170.45 75.02,162.33 86.57,144.13 101.49,152.25 			"/>
		</g>
		<g class="st1">
			<defs>
				<path id="SVGID_88_" class="st1" d="M117.08,101.55l14.92,8.12c-3.65-1.98-7.97-2.82-12.6-2.17l-14.92-8.12
					C109.11,98.72,113.44,99.56,117.08,101.55z"/>
			</defs>
			<clipPath id="SVGID_89_">
				<use xlink:href="#SVGID_88_"  style="overflow:visible;"/>
			</clipPath>
			<g class="st103">
				<path class="st17" d="M119.41,107.49l-14.92-8.12c2.86-0.4,5.6-0.24,8.14,0.42l14.92,8.12
					C125.01,107.26,122.27,107.09,119.41,107.49"/>
				<path class="st16" d="M127.55,107.91l-14.92-8.12c1.3,0.34,2.55,0.8,3.74,1.38l14.92,8.12
					C130.1,108.71,128.85,108.24,127.55,107.91"/>
				<path class="st15" d="M131.29,109.29l-14.92-8.12c0.24,0.12,0.48,0.24,0.72,0.37l14.92,8.12
					C131.77,109.53,131.53,109.41,131.29,109.29"/>
			</g>
		</g>
		<g class="st1">
			<defs>
				<path id="SVGID_90_" class="st1" d="M110.63,108.24c0.8,0.25,1.56,0.58,2.29,0.98l14.92,8.12c-0.73-0.39-1.49-0.72-2.29-0.98
					C120.58,113.65,115.61,110.95,110.63,108.24z"/>
			</defs>
			<clipPath id="SVGID_91_">
				<use xlink:href="#SVGID_90_"  style="overflow:visible;"/>
			</clipPath>
			<g class="st104">
				<path class="st79" d="M124.86,116.16l-14.92-8.12c0.87,0.23,1.71,0.54,2.51,0.93l14.92,8.12
					C126.57,116.7,125.73,116.38,124.86,116.16"/>
				<path class="st86" d="M127.36,117.09l-14.92-8.12c0.16,0.08,0.32,0.16,0.48,0.25l14.92,8.12
					C127.69,117.25,127.53,117.17,127.36,117.09"/>
			</g>
		</g>
		<g>
			<path class="st41" d="M134.35,150.58c2.11-2.17,3.91-4.69,5.32-7.43l19.42,6.13c-1.13,2.66-1.89,5.49-2.2,8.41L134.35,150.58z"/>
		</g>
		<g>
			<path class="st105" d="M119.39,115.88c8.75-1.23,15.85,5.46,15.83,14.9c-0.02,9.44-7.15,18.12-15.9,19.35
				c-8.75,1.23-15.86-5.45-15.84-14.89C103.5,125.8,110.64,117.11,119.39,115.88z"/>
		</g>
		<g>
			<path class="st41" d="M119.41,107.49c13.03-1.83,23.62,8.13,23.59,22.2c-0.01,4.74-1.22,9.36-3.33,13.46
				c-1.41,2.74-3.21,5.26-5.32,7.43c-4.09,4.22-9.34,7.14-15.04,7.95c-4.31,0.61-8.35-0.08-11.83-1.77c-2.26-1.1-4.28-2.63-5.99-4.5
				c-3.61-3.97-5.79-9.52-5.78-15.92C95.74,122.27,106.37,109.32,119.41,107.49z M119.33,150.14c8.75-1.23,15.88-9.91,15.9-19.35
				c0.02-9.44-7.08-16.13-15.83-14.9c-8.75,1.23-15.89,9.92-15.91,19.37C103.47,144.69,110.58,151.37,119.33,150.14"/>
		</g>
		<g>
			<g>
				
					<linearGradient id="SVGID_92_" gradientUnits="userSpaceOnUse" x1="1.1889" y1="106.3899" x2="49.6679" y2="106.3899" gradientTransform="matrix(1 0 0 1 17 47)">
					<stop  offset="0" style="stop-color:#0071E9"/>
					<stop  offset="1" style="stop-color:#1D4E8F"/>
				</linearGradient>
				<path class="st106" d="M33.11,164.03c0-0.67,0.02-1.33,0.05-2c0.01-0.22,0.03-0.44,0.04-0.66c0.03-0.44,0.05-0.88,0.09-1.32
					c0.02-0.26,0.06-0.53,0.09-0.79c0.04-0.39,0.08-0.79,0.14-1.18c0.04-0.28,0.09-0.56,0.13-0.83c0.06-0.37,0.11-0.75,0.18-1.12
					c0.05-0.29,0.11-0.57,0.17-0.85c0.07-0.36,0.14-0.72,0.22-1.08c0.06-0.29,0.14-0.58,0.21-0.87c0.08-0.35,0.17-0.7,0.26-1.04
					c0.08-0.29,0.16-0.58,0.24-0.86c0.1-0.34,0.2-0.68,0.3-1.02c0.09-0.29,0.18-0.57,0.28-0.86c0.11-0.33,0.22-0.67,0.34-1
					c0.11-0.32,0.23-0.64,0.36-0.96c0.09-0.24,0.18-0.47,0.27-0.71c0.14-0.34,0.28-0.68,0.42-1.02c0.09-0.22,0.19-0.44,0.28-0.66
					c0.16-0.37,0.33-0.73,0.51-1.09c0.09-0.18,0.17-0.37,0.26-0.55c0.25-0.51,0.5-1.01,0.77-1.5c0.02-0.04,0.04-0.07,0.06-0.11
					c0.01-0.01,0.01-0.02,0.02-0.03c0.4-0.75,0.83-1.49,1.28-2.21c0.11-0.17,0.21-0.35,0.32-0.52c0.45-0.72,0.91-1.43,1.4-2.13
					c0.06-0.08,0.12-0.16,0.18-0.25c0.41-0.58,0.84-1.15,1.28-1.72c0.13-0.17,0.27-0.34,0.4-0.51c0.48-0.61,0.98-1.2,1.49-1.78
					c0.02-0.02,0.04-0.05,0.06-0.07c0.53-0.6,1.08-1.18,1.64-1.75c0.15-0.15,0.3-0.3,0.45-0.45c0.49-0.49,0.98-0.96,1.49-1.42
					c0.09-0.08,0.18-0.17,0.27-0.25c0.63-0.56,1.27-1.1,1.93-1.63c0.15-0.12,0.31-0.24,0.46-0.36c0.67-0.52,1.35-1.04,2.05-1.52
					c0.49-0.34,0.99-0.67,1.5-0.99c0.17-0.11,0.34-0.2,0.5-0.3c0.34-0.21,0.68-0.42,1.03-0.62c0.2-0.12,0.41-0.22,0.61-0.34
					c0.32-0.18,0.63-0.35,0.96-0.52c0.22-0.12,0.45-0.22,0.67-0.33c0.31-0.15,0.61-0.31,0.92-0.45c0.32-0.15,0.64-0.29,0.96-0.42
					c0.25-0.11,0.49-0.22,0.74-0.32c0.34-0.14,0.69-0.27,1.03-0.4c0.23-0.09,0.46-0.18,0.7-0.26c0.39-0.14,0.78-0.26,1.17-0.39
					c0.2-0.06,0.39-0.13,0.59-0.19c0.59-0.18,1.19-0.34,1.79-0.49l-14.92-8.12c-0.6,0.15-1.2,0.31-1.79,0.49
					c-0.2,0.06-0.39,0.13-0.59,0.19c-0.39,0.13-0.78,0.25-1.17,0.39c-0.23,0.08-0.46,0.18-0.7,0.26c-0.35,0.13-0.69,0.26-1.03,0.4
					c-0.25,0.1-0.49,0.21-0.74,0.32c-0.32,0.14-0.64,0.28-0.96,0.42c-0.04,0.02-0.09,0.04-0.13,0.06c-0.26,0.12-0.52,0.26-0.79,0.39
					c-0.22,0.11-0.45,0.22-0.67,0.33c-0.32,0.17-0.64,0.34-0.96,0.52c-0.2,0.11-0.41,0.22-0.61,0.34c-0.35,0.2-0.69,0.41-1.03,0.62
					c-0.17,0.1-0.34,0.2-0.5,0.3c-0.51,0.32-1,0.65-1.5,0.99c0,0,0,0,0,0c-0.7,0.48-1.38,0.99-2.05,1.52
					c-0.15,0.12-0.31,0.24-0.46,0.36c-0.66,0.53-1.3,1.07-1.93,1.63c-0.02,0.02-0.04,0.04-0.06,0.05c-0.07,0.06-0.14,0.13-0.21,0.2
					c-0.51,0.46-1,0.94-1.49,1.42c-0.15,0.15-0.3,0.3-0.45,0.45c-0.56,0.57-1.11,1.15-1.64,1.75c0,0-0.01,0.01-0.01,0.01
					c-0.02,0.02-0.03,0.04-0.05,0.06c-0.51,0.58-1,1.18-1.49,1.78c-0.13,0.17-0.27,0.34-0.4,0.51c-0.44,0.56-0.86,1.13-1.28,1.72
					c-0.05,0.07-0.1,0.13-0.14,0.19c-0.01,0.02-0.02,0.04-0.03,0.05c-0.49,0.69-0.95,1.41-1.4,2.13c-0.11,0.17-0.21,0.35-0.32,0.52
					c-0.44,0.73-0.87,1.46-1.28,2.21c0,0.01-0.01,0.02-0.01,0.03c0,0,0,0.01,0,0.01c-0.02,0.04-0.04,0.07-0.06,0.11
					c-0.26,0.5-0.52,1-0.77,1.5c-0.09,0.18-0.17,0.37-0.26,0.55c-0.17,0.36-0.34,0.72-0.51,1.09c-0.1,0.22-0.19,0.44-0.28,0.66
					c-0.14,0.34-0.29,0.68-0.42,1.02c-0.09,0.24-0.18,0.47-0.27,0.71c-0.08,0.21-0.16,0.41-0.24,0.62
					c-0.04,0.11-0.08,0.22-0.11,0.33c-0.12,0.33-0.23,0.67-0.34,1c-0.09,0.28-0.19,0.57-0.28,0.86c-0.11,0.34-0.2,0.68-0.3,1.02
					c-0.08,0.29-0.17,0.57-0.24,0.86c-0.09,0.35-0.18,0.69-0.26,1.04c-0.07,0.29-0.14,0.58-0.21,0.87
					c-0.08,0.36-0.15,0.72-0.22,1.08c-0.06,0.28-0.12,0.57-0.17,0.85c-0.07,0.37-0.12,0.74-0.18,1.12
					c-0.04,0.28-0.09,0.56-0.13,0.83c-0.05,0.39-0.09,0.78-0.14,1.18c-0.03,0.26-0.06,0.53-0.09,0.79
					c-0.04,0.44-0.07,0.88-0.09,1.32c-0.01,0.22-0.03,0.44-0.04,0.66c-0.03,0.66-0.05,1.33-0.05,2
					c-0.03,14.31,6.87,25.9,17.28,31.56l14.92,8.12C39.98,189.93,33.09,178.34,33.11,164.03z"/>
			</g>
		</g>
		<linearGradient id="SVGID_93_" gradientUnits="userSpaceOnUse" x1="33.1131" y1="126.7952" x2="217.6807" y2="126.7952">
			<stop  offset="0" style="stop-color:#3282ED"/>
			<stop  offset="1" style="stop-color:#60A2F0"/>
		</linearGradient>
		<path class="st107" d="M95.71,136.34c-0.01,6.4,2.17,11.94,5.78,15.92l-11.55,18.2c-2.6-0.7-5.42-0.89-8.36-0.47
			c-12.93,1.82-23.48,14.55-23.68,28.49c-14.47-3.48-24.82-16.92-24.78-34.44c0.04-20.83,14.75-40.03,33.55-44.72
			c4.15-17.97,18.78-32.89,36.17-35.33c7.81-1.1,15.04,0.48,21.02,4.06c5.72-16.8,20.1-30.19,36.94-32.56
			c16.41-2.31,30.46,6.52,36.4,21.05c7.58-1.05,14.62,0.42,20.48,3.8c-8.32,5.13-14.16,14.92-14.18,25.34
			c-0.01,5.27,1.47,9.96,4.01,13.67l-13.29,15.4c-3.88-2.49-8.66-3.61-13.81-2.89c-9.36,1.31-17.47,8.35-21.31,17.42l-19.42-6.13
			c2.11-4.1,3.32-8.72,3.33-13.46c0.03-14.07-10.56-24.03-23.59-22.2C106.37,109.32,95.74,122.27,95.71,136.34z"/>
		<g>
			<path class="st41" d="M199.68,139.94c2.73,3.78,4.33,8.64,4.32,14.12c-0.03,14.07-10.65,27-23.68,28.83
				c-13.03,1.83-23.62-8.12-23.59-22.19c0-1.01,0.06-2.02,0.17-3.01c0.32-2.92,1.08-5.75,2.2-8.41
				c3.84-9.07,11.96-16.11,21.31-17.42c5.16-0.72,9.93,0.4,13.81,2.89C196.33,136.1,198.17,137.86,199.68,139.94z M180.32,174.51
				c8.75-1.23,15.89-9.91,15.91-19.36c0.02-9.45-7.09-16.13-15.84-14.9c-8.75,1.23-15.88,9.91-15.9,19.36
				C164.47,169.06,171.57,175.74,180.32,174.51"/>
		</g>
		<g class="st1">
			<defs>
				<path id="SVGID_94_" class="st1" d="M56.27,201.84c-0.31-0.24-0.61-0.5-0.9-0.78c4.97,2.71,9.95,5.41,14.92,8.12
					c0.29,0.27,0.59,0.53,0.9,0.78C66.22,207.25,61.25,204.55,56.27,201.84z"/>
			</defs>
			<clipPath id="SVGID_95_">
				<use xlink:href="#SVGID_94_"  style="overflow:visible;"/>
			</clipPath>
			<g class="st108">
				<path class="st90" d="M73.04,211.17l-14.92-8.12c-4.44-2.41-7.38-7.35-7.37-13.44c0-2.32,0.44-4.6,1.22-6.73L66.89,191
					c-0.78,2.13-1.22,4.41-1.22,6.73C65.65,203.82,68.6,208.75,73.04,211.17"/>
			</g>
		</g>
		<g>
			<path class="st41" d="M101.49,152.25c1.7,1.88,3.73,3.4,5.99,4.5l-10.8,17.01c-2-1.52-4.27-2.65-6.74-3.31L101.49,152.25z"/>
		</g>
		<g class="st1">
			<defs>
				<path id="SVGID_96_" class="st1" d="M52.45,197.12c4.97,2.71,9.95,5.41,14.92,8.12c0.76,1.51,1.75,2.84,2.93,3.94
					c-2.81-1.53-5.63-3.06-8.44-4.59c-0.29-0.16-0.68-0.37-0.97-0.53c-0.58-0.31-1.34-0.73-1.92-1.04c-0.91-0.5-1.82-0.99-2.73-1.49
					c-0.26-0.14-0.56-0.47-0.86-0.47C54.2,199.96,53.21,198.63,52.45,197.12z"/>
			</defs>
			<clipPath id="SVGID_97_">
				<use xlink:href="#SVGID_96_"  style="overflow:visible;"/>
			</clipPath>
			<g class="st109">
				<path class="st90" d="M73.04,211.17l-14.92-8.12c-4.44-2.41-7.38-7.35-7.37-13.44c0-2.32,0.44-4.6,1.22-6.73L66.89,191
					c-0.78,2.13-1.22,4.41-1.22,6.73C65.65,203.82,68.6,208.75,73.04,211.17"/>
			</g>
		</g>
		<g class="st1">
			<defs>
				<path id="SVGID_98_" class="st1" d="M52.45,197.12c-0.17-0.33-0.32-0.67-0.47-1.02c4.97,2.71,9.95,5.41,14.92,8.12
					c0.14,0.35,0.3,0.69,0.47,1.02c-4.08-2.22-8.15-4.44-12.23-6.65c-0.45-0.24-0.9-0.49-1.35-0.73c-0.05-0.03-0.12-0.07-0.18-0.1
					c-0.05-0.03-0.12-0.07-0.18-0.1c-0.17-0.09-0.34-0.19-0.51-0.28c-0.1-0.05-0.23-0.12-0.32-0.18
					C52.55,197.18,52.48,197.16,52.45,197.12z"/>
			</defs>
			<clipPath id="SVGID_99_">
				<use xlink:href="#SVGID_98_"  style="overflow:visible;"/>
			</clipPath>
			<g class="st110">
				<path class="st90" d="M73.04,211.17l-14.92-8.12c-4.44-2.41-7.38-7.35-7.37-13.44c0-2.32,0.44-4.6,1.22-6.73L66.89,191
					c-0.78,2.13-1.22,4.41-1.22,6.73C65.65,203.82,68.6,208.75,73.04,211.17"/>
			</g>
		</g>
		<linearGradient id="SVGID_100_" gradientUnits="userSpaceOnUse" x1="108.9305" y1="67.5194" x2="181.8944" y2="67.5194">
			<stop  offset="0.0626" style="stop-color:#1B4885"/>
			<stop  offset="0.3179" style="stop-color:#579CEF"/>
			<stop  offset="0.7408" style="stop-color:#1D4E8F"/>
		</linearGradient>
		<path class="st111" d="M166.97,50.99l14.92,8.12c-6.1-3.32-13.34-4.72-21.1-3.63c-16.84,2.37-31.22,15.75-36.94,32.56l-14.92-8.12
			c5.72-16.8,20.1-30.19,36.94-32.56C153.63,46.27,160.87,47.67,166.97,50.99z"/>
		<path class="st39" d="M123.85,88.04l-14.92-8.12c0.13-0.38,0.26-0.75,0.4-1.13l14.92,8.12C124.12,87.29,123.98,87.66,123.85,88.04
			"/>
		<g>
			<g>
				
					<linearGradient id="SVGID_101_" gradientUnits="userSpaceOnUse" x1="92.3286" y1="19.9566" x2="157.4945" y2="19.9566" gradientTransform="matrix(1 0 0 1 17 47)">
					<stop  offset="0" style="stop-color:#0071E9"/>
					<stop  offset="1" style="stop-color:#1D4E8F"/>
				</linearGradient>
				<path class="st112" d="M159.57,48.08c-4.27-1.1-8.88-1.39-13.7-0.71c-4.03,0.57-7.92,1.76-11.58,3.49
					c-2.21,1.04-4.34,2.27-6.37,3.68c-1.67,1.15-3.27,2.42-4.79,3.79c-1.41,1.27-2.76,2.63-4.02,4.06
					c-1.26,1.43-2.45,2.94-3.56,4.51c-1.17,1.67-2.25,3.42-3.22,5.23c-1.15,2.14-2.16,4.37-3,6.67l14.92,8.12
					c0.84-2.3,1.85-4.53,3-6.67c0.97-1.81,2.05-3.56,3.22-5.23c1.1-1.57,2.29-3.08,3.56-4.51c1.27-1.44,2.61-2.79,4.02-4.06
					c1.52-1.37,3.12-2.64,4.79-3.79c2.03-1.4,4.16-2.64,6.37-3.68c3.66-1.72,7.55-2.92,11.58-3.49c4.82-0.68,9.43-0.39,13.7,0.71
					L159.57,48.08z"/>
			</g>
		</g>
		<path class="st39" d="M174.49,56.19l-14.92-8.12c2.17,0.56,4.25,1.34,6.21,2.3l14.92,8.12C178.74,57.53,176.66,56.76,174.49,56.19
			"/>
		<path class="st39" d="M180.71,58.5l-14.92-8.12c0.4,0.2,0.79,0.4,1.19,0.61l14.92,8.12C181.5,58.9,181.11,58.69,180.71,58.5"/>
		<g>
			<path class="st113" d="M81.56,178.37c8.75-1.23,15.86,5.46,15.84,14.9c-0.02,9.44-7.16,18.13-15.91,19.36
				c-8.75,1.23-15.85-5.45-15.83-14.89C65.68,188.29,72.81,179.6,81.56,178.37z"/>
		</g>
		<g>
			<path class="st53" d="M96.68,173.76c5.2,3.95,8.51,10.54,8.49,18.42c-0.01,4.51-1.11,8.91-3.03,12.86
				c-4.07,8.36-11.81,14.73-20.66,15.97c-13.03,1.83-23.62-8.12-23.59-22.19c0-0.12,0-0.23,0-0.35
				c0.2-13.94,10.76-26.68,23.68-28.49c2.94-0.41,5.76-0.23,8.36,0.47C92.41,171.12,94.69,172.25,96.68,173.76z M81.5,212.63
				c8.75-1.23,15.89-9.91,15.91-19.36c0.02-9.44-7.09-16.13-15.84-14.9c-8.75,1.23-15.88,9.92-15.9,19.36
				C65.65,207.17,72.75,213.86,81.5,212.63"/>
		</g>
		<linearGradient id="SVGID_102_" gradientUnits="userSpaceOnUse" x1="51.7437" y1="97.4107" x2="122.7414" y2="97.4107">
			<stop  offset="0.0626" style="stop-color:#1B4885"/>
			<stop  offset="0.3179" style="stop-color:#579CEF"/>
			<stop  offset="0.7408" style="stop-color:#1D4E8F"/>
		</linearGradient>
		<path class="st114" d="M107.82,79.28l14.92,8.12c-5.75-3.13-12.58-4.46-19.91-3.43c-17.39,2.44-32.02,17.37-36.17,35.33
			l-14.92-8.12c4.15-17.97,18.78-32.89,36.17-35.33C95.24,74.83,102.06,76.15,107.82,79.28z"/>
		<g>
			<g>
				
					<linearGradient id="SVGID_103_" gradientUnits="userSpaceOnUse" x1="34.7437" y1="50.4107" x2="105.7414" y2="50.4107" gradientTransform="matrix(1 0 0 1 17 47)">
					<stop  offset="0" style="stop-color:#0071E9"/>
					<stop  offset="1" style="stop-color:#1D4E8F"/>
				</linearGradient>
				<path class="st115" d="M107.82,79.28c-0.37-0.2-0.74-0.39-1.12-0.58c-1.86-0.91-3.82-1.65-5.87-2.18
					c-4.02-1.04-8.38-1.31-12.92-0.67c-3.79,0.53-7.45,1.66-10.9,3.28c-2.1,0.99-4.12,2.16-6.04,3.49c-1.57,1.09-3.07,2.28-4.5,3.57
					c-1.33,1.2-2.6,2.48-3.8,3.84c-1.19,1.35-2.31,2.77-3.36,4.26c-1.11,1.58-2.13,3.23-3.05,4.95c-1.08,2.01-2.03,4.11-2.82,6.27
					c-0.68,1.85-1.25,3.75-1.7,5.69l14.92,8.12c0.45-1.93,1.01-3.83,1.7-5.69c0.79-2.16,1.74-4.26,2.82-6.27
					c0.92-1.71,1.94-3.36,3.05-4.95c1.04-1.49,2.16-2.91,3.36-4.26c1.2-1.36,2.47-2.64,3.8-3.84c1.43-1.29,2.94-2.48,4.5-3.57
					c1.92-1.33,3.94-2.5,6.04-3.49c3.45-1.62,7.11-2.75,10.9-3.28c4.55-0.64,8.9-0.37,12.92,0.67c2.05,0.53,4.01,1.26,5.87,2.18
					c0.38,0.19,0.75,0.38,1.12,0.58L107.82,79.28z"/>
			</g>
		</g>
	</g>
	<g id="data_cube_7_">
		<g>
			<linearGradient id="SVGID_104_" gradientUnits="userSpaceOnUse" x1="251.8283" y1="231.1419" x2="229.4123" y2="241.2961">
				<stop  offset="5.025130e-03" style="stop-color:#5298EF"/>
				<stop  offset="1" style="stop-color:#73B0F1;stop-opacity:0"/>
			</linearGradient>
			<polygon class="st116" points="219.04,237.65 240.42,226.34 261.18,235.75 239.47,246.71 			"/>
			<linearGradient id="SVGID_105_" gradientUnits="userSpaceOnUse" x1="239.9261" y1="216.7839" x2="281.4803" y2="216.7839">
				<stop  offset="0" style="stop-color:#6DACEF"/>
				<stop  offset="1" style="stop-color:#97C9FE"/>
			</linearGradient>
			<polygon class="st117" points="281.48,210.48 261.23,235.82 240.14,226.57 239.93,197.75 281.48,202.83 			"/>
			<linearGradient id="SVGID_106_" gradientUnits="userSpaceOnUse" x1="261.0483" y1="225.6359" x2="280.8822" y2="209.1448">
				<stop  offset="3.378380e-03" style="stop-color:#8EBEF4"/>
				<stop  offset="1" style="stop-color:#B4D8FA"/>
			</linearGradient>
			<polygon class="st118" points="261.23,235.82 261.22,208.35 280.64,198.28 281.96,198.39 282,225.35 			"/>
			<linearGradient id="SVGID_107_" gradientUnits="userSpaceOnUse" x1="239.8403" y1="198.1133" x2="281.959" y2="198.1133">
				<stop  offset="0" style="stop-color:#97C3F4"/>
				<stop  offset="1" style="stop-color:#E8F1FA"/>
			</linearGradient>
			<polygon class="st119" points="239.84,197.72 260.41,187.37 281.96,198.39 261.22,208.86 			"/>
		</g>
		
			<linearGradient id="SVGID_108_" gradientUnits="userSpaceOnUse" x1="-1307.3925" y1="601.8769" x2="-1307.3925" y2="652.7796" gradientTransform="matrix(0.5 0.866 -0.866 0.5 1402.085 1041.4088)">
			<stop  offset="3.378380e-03" style="stop-color:#75B2FF"/>
			<stop  offset="1" style="stop-color:#75B2FF;stop-opacity:0"/>
		</linearGradient>
		<path class="st120" d="M178.57,238.2L178.57,238.2c-0.51-0.88-0.21-2.01,0.67-2.52l51.12-29.52c0.88-0.51,2.01-0.21,2.52,0.67l0,0
			c0.51,0.88,0.21,2.01-0.67,2.52l-51.12,29.52C180.21,239.38,179.08,239.08,178.57,238.2z"/>
		
			<linearGradient id="SVGID_109_" gradientUnits="userSpaceOnUse" x1="-1344.2904" y1="367.8428" x2="-1344.2904" y2="389.8504" gradientTransform="matrix(0.4772 0.8265 -0.7164 0.4136 1135.6169 1183.2845)">
			<stop  offset="3.378380e-03" style="stop-color:#75B2FF"/>
			<stop  offset="1" style="stop-color:#75B2FF;stop-opacity:0"/>
		</linearGradient>
		<path class="st121" d="M213.46,234.82l-0.23-0.41c-0.42-0.73-0.17-1.66,0.56-2.08l16.54-10.11c0.73-0.42,1.66-0.17,2.08,0.56
			l0.23,0.41c0.42,0.73,0.17,1.66-0.56,2.08l-16.54,10.11C214.81,235.79,213.88,235.54,213.46,234.82z"/>
	</g>
</g>
</svg>
