<?xml version="1.0" encoding="UTF-8"?>
<svg width="104px" height="105px" viewBox="0 0 104 105" version="1.1" xmlns="http://www.w3.org/2000/svg" xmlns:xlink="http://www.w3.org/1999/xlink">
    <title>zs_icon_xscl</title>
    <defs>
        <linearGradient x1="-22.8322989%" y1="49.9998762%" x2="99.9996313%" y2="49.9998762%" id="linearGradient-1">
            <stop stop-color="#8199CF" offset="0%"></stop>
            <stop stop-color="#F9FAFE" offset="100%"></stop>
        </linearGradient>
        <linearGradient x1="10.7852033%" y1="36.2122785%" x2="100%" y2="45.9397115%" id="linearGradient-2">
            <stop stop-color="#D8E3FC" offset="0%"></stop>
            <stop stop-color="#D4E0FE" offset="48.1463044%"></stop>
            <stop stop-color="#C3D1F8" offset="100%"></stop>
        </linearGradient>
        <linearGradient x1="0.000385075995%" y1="49.9998762%" x2="99.9996313%" y2="49.9998762%" id="linearGradient-3">
            <stop stop-color="#F4F4FC" offset="0%"></stop>
            <stop stop-color="#F4F4FC" offset="100%"></stop>
        </linearGradient>
        <linearGradient x1="50%" y1="100%" x2="50%" y2="0%" id="linearGradient-4">
            <stop stop-color="#C4D2F8" offset="0%"></stop>
            <stop stop-color="#F4F7FF" offset="100%"></stop>
        </linearGradient>
        <linearGradient x1="50%" y1="18.416689%" x2="50%" y2="100%" id="linearGradient-5">
            <stop stop-color="#74D9FF" stop-opacity="0" offset="0%"></stop>
            <stop stop-color="#40B2FF" stop-opacity="0.1620684" offset="100%"></stop>
        </linearGradient>
        <linearGradient x1="7.68458704%" y1="100%" x2="99.3992044%" y2="0%" id="linearGradient-6">
            <stop stop-color="#4983F9" offset="0%"></stop>
            <stop stop-color="#8EB3FF" offset="100%"></stop>
        </linearGradient>
    </defs>
    <g id="页面-1" stroke="none" stroke-width="1" fill="none" fill-rule="evenodd">
        <g id="zs_icon_xscl">
            <rect id="矩形" x="0" y="0" width="104" height="104"></rect>
            <path d="M51.594375,48 C48.745875,48.0135 45.906375,48.6465 43.737375,49.8975 L6.288375,71.5185 C1.903875,74.052 1.903875,78.171 6.288375,80.7015 L43.738875,102.3255 C48.124875,104.856 55.258875,104.856 59.644875,102.3255 L97.093875,80.703 C101.479875,78.1725 101.479875,74.052 97.093875,71.52 L59.643375,49.8975 C57.475875,48.6465 54.634875,48.0135 51.787875,48 L51.594375,48 Z" id="Fill-17" fill="url(#linearGradient-1)"></path>
            <path d="M4.494375,63.6105 L3.000375,64.0305 L3.000375,72.732 C3.000375,74.3955 4.096875,76.056 6.288375,77.3235 L6.288375,77.3235 L43.738875,98.946 C48.124875,101.4765 55.258875,101.4765 59.644875,98.946 L59.644875,98.946 L97.095375,77.325 C99.250875,76.08 100.347375,74.4495 100.383375,72.8145 L100.383375,72.8145 C100.383375,72.741 100.381875,72.6675 100.378875,72.594 L100.378875,72.594 L100.383375,72.597 L100.383375,64.1115 L98.035875,62.8065 C97.372875,66.81 92.659875,69.45 88.719375,69.999 L88.719375,69.999 L61.884375,85.6905 L50.173875,89.919 L12.792375,70.629 L13.656375,70.131 C10.461375,68.637 8.740875,65.223 7.011375,62.109 L7.011375,62.109 L4.494375,63.6105 Z" id="Clip-14"></path>
            <path d="M4.494375,63.6105 L3.000375,64.0305 L3.000375,72.732 C3.000375,74.3955 4.096875,76.056 6.288375,77.3235 L43.738875,98.946 C48.124875,101.4765 55.258875,101.4765 59.644875,98.946 L97.095375,77.325 C99.250875,76.08 100.347375,74.4495 100.383375,72.8145 C100.383375,72.741 100.381875,72.6675 100.378875,72.594 L100.383375,64.1115 L98.035875,62.8065 C97.372875,66.81 92.659875,69.45 88.719375,69.999 L61.884375,85.6905 L50.173875,89.919 L12.792375,70.629 L13.656375,70.131 C10.461375,68.637 8.740875,65.223 7.011375,62.109 L4.494375,63.6105 Z" id="Fill-13" fill="url(#linearGradient-2)"></path>
            <path d="M51.594375,36 C48.745875,36.0135 45.906375,36.6465 43.737375,37.8975 L43.737375,37.8975 L6.288375,59.5185 C1.903875,62.052 1.903875,66.171 6.288375,68.7015 L6.288375,68.7015 L43.738875,90.3255 C48.124875,92.856 55.258875,92.856 59.644875,90.3255 L59.644875,90.3255 L97.093875,68.703 C101.479875,66.1725 101.479875,62.052 97.093875,59.52 L97.093875,59.52 L59.643375,37.8975 C57.475875,36.6465 54.634875,36.0135 51.787875,36 L51.787875,36 L51.594375,36 Z" id="Clip-18"></path>
            <path d="M51.594375,36 C48.745875,36.0135 45.906375,36.6465 43.737375,37.8975 L43.737375,37.8975 L6.288375,59.5185 C1.903875,62.052 1.903875,66.171 6.288375,68.7015 L6.288375,68.7015 L43.738875,90.3255 C48.124875,92.856 55.258875,92.856 59.644875,90.3255 L59.644875,90.3255 L97.093875,68.703 C101.479875,66.1725 101.479875,62.052 97.093875,59.52 L97.093875,59.52 L59.643375,37.8975 C57.475875,36.6465 54.634875,36.0135 51.787875,36 L51.787875,36 L51.594375,36 Z" id="Fill-17" fill="url(#linearGradient-3)"></path>
            <path d="M97.095225,68.70375 L59.644725,90.32475 C55.258725,92.85675 48.126225,92.85675 43.740225,90.32475 L6.289725,68.70225 C4.329225,67.57125 3.249225,66.12225 3.040725,64.64025 C2.782725,66.47475 3.864225,68.36025 6.289725,69.75975 L43.740225,91.38225 C48.126225,93.91425 55.258725,93.91425 59.644725,91.38225 L97.095225,69.75975 C99.519225,68.36025 100.600725,66.47475 100.342725,64.64025 C100.134225,66.12225 99.054225,67.57125 97.095225,68.70375" id="Fill-19" fill="#FFFFFF"></path>
            <path d="M51.9320495,43 C49.9430242,43.0093644 47.9602833,43.4484523 46.4457332,44.316223 L20.2961774,59.3138819 C17.2346075,61.0712737 17.2346075,63.9284661 20.2961774,65.683777 L46.4467806,80.6835169 C49.5093978,82.4388277 54.4908641,82.4388277 57.5534813,80.6835169 L83.7030371,65.6848175 C86.7656543,63.9295066 86.7656543,61.0712737 83.7030371,59.3149224 L57.5524339,44.316223 C56.0389312,43.4484523 54.0551429,43.0093644 52.067165,43 L51.9320495,43 Z" id="Fill-17" stroke="#FFFFFF" stroke-width="0.5" fill="url(#linearGradient-4)"></path>
            <polygon id="矩形" fill="url(#linearGradient-5)" points="18 9 86 8.70751953 86 60.0273438 51.59375 40.6254883 18 60.0273438"></polygon>
            <path d="M61.2929688,56.5898438 L60.8710938,56.5898438 C58.4375,56.5898438 56.375,58.171875 55.6523438,60.3632813 L42.5078125,60.1796875 C40.8320312,60.15625 39.4921875,58.5234375 39.5195312,56.5390625 L39.5234375,56.1796875 C39.5507812,54.2109375 40.9179688,52.625 42.5742188,52.625 L42.609375,52.625 L56.3125,52.8164062 C58.515625,52.84375 60.6054688,51.9453125 62.1679688,50.2695312 C63.6679688,48.6640625 64.5117188,46.53125 64.5429688,44.2578125 C64.609375,39.4765625 61.0273438,35.5351562 56.5546875,35.4726562 L42.3710938,35.2773438 C41.3710938,33.8984375 39.75,33 37.9179688,33 L37.4960938,33 C34.4609375,33 32,35.4609375 32,38.4960938 L32,38.9179688 C32,41.953125 34.4609375,44.4140625 37.4960938,44.4140625 L37.9179688,44.4140625 C40.453125,44.4140625 42.5859375,42.6953125 43.21875,40.3632812 L56.4882812,40.5507812 C58.1640625,40.5742188 59.5039062,42.2070312 59.4765625,44.1914062 C59.4609375,45.1992188 59.1054688,46.1289062 58.4648438,46.8085938 C57.890625,47.421875 57.1445312,47.7617188 56.3867188,47.7460938 L42.6835938,47.5507812 C38.21875,47.484375 34.5195312,51.3242188 34.453125,56.1054688 L34.4492188,56.4648438 C34.3828125,61.2460938 37.9648438,65.1835938 42.4375,65.25 L56.2304688,65.4453125 C57.203125,66.9804688 58.9179688,68.0039062 60.875,68.0039062 L61.296875,68.0039062 C64.3320312,68.0039062 66.7929688,65.5429688 66.7929688,62.5078125 L66.7929688,62.0859375 C66.7890625,59.046875 64.328125,56.5898438 61.2929688,56.5898438 Z" id="路径" fill="url(#linearGradient-6)"></path>
        </g>
    </g>
</svg>